<svg width="595" height="500" fill="none" xmlns="http://www.w3.org/2000/svg"><path fill-rule="evenodd" clip-rule="evenodd" d="M47 687H0L208 48c9-29 36-48 66-48h84c25 0 46 11 59 29s17 41 9 64l-21 66c-9 28-34 47-63 48l40-123c4-11 3-22-3-29-6-8-15-12-27-12h-72c-14 0-27 9-31 22L47 687z" fill="#F0145A"/><path fill-rule="evenodd" clip-rule="evenodd" d="M342 207h-94l42-126h47l-28 83h47l-14 43z" fill="url(#paint0_linear)"/><defs><linearGradient id="paint0_linear" x1="248.1" y1="182.9" x2="353" y2="237.8" gradientUnits="userSpaceOnUse"><stop stop-color="#F0145A"/><stop offset="1" stop-color="#693264"/></linearGradient></defs></svg>