<svg width="375" height="436" fill="none" xmlns="http://www.w3.org/2000/svg"><path fill-rule="evenodd" clip-rule="evenodd" d="M-55.2054 687.461H-102S85.8475 109.284 105.75 48.0486C115.062 19.398 141.757 0 171.877 0h83.657c25.228 0 46.283 10.6562 59.374 28.6634 13.082 18.0081 16.793 41.05 9.165 64.5566-7.639 23.506-14.854 45.696-21.459 66.027-8.918 27.452-33.624 46.367-62.189 47.906 0 0-.148-.048 39.875-123.2339 3.534-10.8708 2.244-21.5113-3.308-29.1427-5.541-7.6305-14.892-12.1465-27.265-12.1465h-71.786c-14.096 0-26.587 9.0773-30.948 22.4848L-55.2054 687.461z" fill="#F0145A"/><path fill-rule="evenodd" clip-rule="evenodd" d="M240.416 207.155h-94.318l41.558-126.3933 47.017.2778-27.301 83.3545 46.877.028-13.833 42.733z" fill="url(#paint0_linear)"/><defs><linearGradient id="paint0_linear" x1="146.091" y1="182.946" x2="251.01" y2="237.784" gradientUnits="userSpaceOnUse"><stop stop-color="#F0145A"/><stop offset="1" stop-color="#693264"/></linearGradient></defs></svg>