<svg width="689" height="622" fill="none" xmlns="http://www.w3.org/2000/svg"><g clip-path="url(#clip0)" fill-rule="evenodd" clip-rule="evenodd" fill="#fff" fill-opacity=".1"><path d="M564.2 304.9h-3.6l10.8-33.46a5.5 5.5 0 015.22-3.7h5.13c4.37.02 6.05 1.74 7.07 4.57.5 1.36.53 3.28.13 4.55l-2.33 7.13a5.4 5.4 0 01-4.8 3.6s3.02-9.14 3.96-12.13a3.39 3.39 0 00-3.4-4.42c-2.01-.02-3.27 0-5.27 0a2.68 2.68 0 00-2.55 1.8L564.2 304.9zM578.2 295.31h7.93l-4.47 13.62-3.63-.03 3.37-10.27h-4.3l1.1-3.31z"/><path d="M595.85 277.98h3.6l-10.82 33.46a5.5 5.5 0 01-5.23 3.7h-5.13c-4.38-.02-6.06-1.74-7.08-4.57a7.93 7.93 0 01-.13-4.55l2.34-7.13a5.4 5.4 0 014.81-3.6s-3.03 9.14-3.98 12.13a3.39 3.39 0 003.4 4.42c2.02.02 3.27 0 5.28 0a2.68 2.68 0 002.55-1.8l10.4-32.06zM393.04 500.12h-7.93l4.48-13.6 3.63.02-3.37 10.27h4.3l-1.11 3.31z"/><path d="M375.4 517.46h-3.6L382.61 484a5.5 5.5 0 015.23-3.7h5.13c4.38.02 6.06 1.74 7.08 4.57.49 1.36.53 3.28.13 4.55l-2.35 7.13a5.4 5.4 0 01-4.8 3.6s3.03-9.15 3.97-12.13a3.39 3.39 0 00-3.4-4.42c-2-.02-3.27 0-5.28 0a2.68 2.68 0 00-2.54 1.8l-10.4 32.06zM501.72 404.18h-7.92l4.47-13.61 3.63.02-3.36 10.28h4.28l-1.1 3.31z"/><path d="M484.08 421.51h-3.6l10.82-33.45a5.5 5.5 0 015.23-3.7c2.02-.02 3.11-.01 5.14 0 4.37.01 6.05 1.73 7.07 4.57.5 1.36.53 3.27.13 4.55-1.04 3.2-1.29 3.93-2.34 7.12a5.4 5.4 0 01-4.81 3.61s3.03-9.15 3.98-12.14a3.39 3.39 0 00-3.4-4.41c-2.02-.03-3.27-.01-5.28 0a2.68 2.68 0 00-2.55 1.8l-10.39 32.05zM526.88 432.75h7.92l-4.47 13.6-3.63-.02 3.37-10.27h-4.3l1.11-3.31z"/><path d="M544.52 415.42h3.6l-10.82 33.45a5.5 5.5 0 01-5.23 3.7h-5.13c-4.38-.01-6.06-1.74-7.08-4.57a7.94 7.94 0 01-.13-4.55c1.04-3.2 1.3-3.93 2.35-7.12a5.4 5.4 0 014.8-3.61s-3.03 9.15-3.97 12.14a3.39 3.39 0 003.4 4.41c2 .02 3.27.01 5.28 0a2.68 2.68 0 002.54-1.8l10.4-32.05zM287.95 552.33h7.93l-4.48 13.6-3.63-.02 3.37-10.27h-4.3l1.11-3.31z"/><path d="M305.6 535h3.6l-10.83 33.45a5.5 5.5 0 01-5.23 3.7h-5.13c-4.38-.02-6.06-1.74-7.08-4.57a7.93 7.93 0 01-.13-4.55c1.04-3.2 1.3-3.94 2.35-7.13a5.4 5.4 0 014.8-3.6s-3.03 9.15-3.97 12.14a3.39 3.39 0 003.4 4.4c2 .03 3.27.02 5.27 0a2.68 2.68 0 002.55-1.8L305.6 535zM425.83 475.8h7.92l-4.47 13.6-3.63-.02 3.36-10.27h-4.29l1.1-3.32z"/><path d="M443.47 458.46h3.6l-10.82 33.46a5.5 5.5 0 01-5.23 3.7h-5.14c-4.37-.02-6.05-1.74-7.07-4.57a7.93 7.93 0 01-.13-4.55l2.34-7.13a5.4 5.4 0 014.8-3.6s-3.02 9.14-3.97 12.13a3.39 3.39 0 003.4 4.42c2.01.02 3.27 0 5.28 0a2.68 2.68 0 002.55-1.81l10.39-32.05zM345.73 592.4h7.92l-4.47 13.62-3.63-.02 3.37-10.28h-4.3l1.11-3.31z"/><path d="M363.37 575.08h3.6l-10.82 33.45a5.5 5.5 0 01-5.23 3.7c-2.02.02-3.11.01-5.13 0-4.38-.01-6.06-1.73-7.08-4.57a7.93 7.93 0 01-.13-4.55c1.04-3.2 1.29-3.93 2.35-7.12a5.4 5.4 0 014.8-3.61s-3.03 9.15-3.98 12.14a3.39 3.39 0 003.4 4.41c2.02.03 3.28.01 5.28 0a2.68 2.68 0 002.55-1.8l10.4-32.05zM629.4 293.64h-3.6l10.8-33.46a5.5 5.5 0 015.22-3.7h5.13c4.38.02 6.06 1.74 7.08 4.57.49 1.36.53 3.28.13 4.55-1.04 3.2-1.28 3.94-2.34 7.13a5.4 5.4 0 01-4.8 3.6s3.03-9.15 3.97-12.14a3.39 3.39 0 00-3.4-4.4c-2.01-.03-3.27-.02-5.28 0a2.68 2.68 0 00-2.54 1.8l-10.37 32.05zM643.4 284.05h7.92l-4.47 13.61-3.64-.02 3.37-10.27h-4.29l1.1-3.32z"/><path d="M661.04 266.72h3.6l-10.82 33.45a5.5 5.5 0 01-5.23 3.7c-2.02.02-3.12.02-5.14 0-4.37-.01-6.05-1.73-7.07-4.56a7.94 7.94 0 01-.13-4.55l2.34-7.13a5.4 5.4 0 014.8-3.6s-3.02 9.14-3.97 12.13a3.39 3.39 0 003.4 4.42c2.01.02 3.27 0 5.28 0a2.68 2.68 0 002.54-1.81l10.4-32.05zM677.33 296.45h-7.93l4.48-13.6 3.63.02-3.37 10.27h4.29l-1.1 3.31z"/><path d="M659.68 313.79h-3.6l10.82-33.46a5.5 5.5 0 015.23-3.7h5.14c4.37.02 6.06 1.74 7.08 4.57.49 1.36.53 3.28.12 4.55l-2.34 7.13a5.4 5.4 0 01-4.8 3.6s3.03-9.14 3.97-12.13a3.39 3.39 0 00-3.4-4.42c-2.01-.02-3.27 0-5.28 0a2.68 2.68 0 00-2.54 1.8l-10.4 32.06zM488.52 509.01h-7.92l4.48-13.6 3.63.02-3.37 10.27h4.29l-1.1 3.31z"/><path d="M470.88 526.35h-3.6l10.82-33.46a5.5 5.5 0 015.23-3.7h5.14c4.37.02 6.06 1.74 7.08 4.57.49 1.36.53 3.28.12 4.55-1.04 3.2-1.28 3.94-2.34 7.13a5.4 5.4 0 01-4.8 3.6s3.03-9.15 3.97-12.14a3.39 3.39 0 00-3.4-4.4c-2.01-.03-3.27-.02-5.28 0a2.68 2.68 0 00-2.54 1.8l-10.4 32.05zM433.3 421.86h7.92l-4.48 13.6-3.63-.02 3.37-10.27h-4.3l1.11-3.31z"/><path d="M450.93 404.52h3.6l-10.82 33.46a5.5 5.5 0 01-5.22 3.7h-5.14c-4.38-.02-6.06-1.74-7.08-4.57a7.94 7.94 0 01-.13-4.55l2.35-7.13a5.4 5.4 0 014.8-3.6s-3.03 9.15-3.97 12.14a3.39 3.39 0 003.4 4.41c2 .02 3.27.01 5.28 0a2.68 2.68 0 002.54-1.8l10.4-32.06zM248.12 626.67h-7.92l4.47-13.61 3.63.02-3.37 10.27h4.3l-1.1 3.32z"/><path d="M230.48 644h-3.6l10.82-33.46a5.5 5.5 0 015.23-3.7h5.13c4.38.02 6.06 1.74 7.08 4.57.49 1.36.53 3.28.13 4.55l-2.34 7.13a5.4 5.4 0 01-4.81 3.6s3.03-9.14 3.98-12.13a3.39 3.39 0 00-3.4-4.41c-2.02-.03-3.27-.02-5.28 0a2.68 2.68 0 00-2.55 1.8L230.47 644zM574.48 339.87h-7.92l4.48-13.6 3.63.02-3.37 10.27h4.29l-1.1 3.31z"/><path d="M556.84 357.2h-3.6l10.82-33.45a5.5 5.5 0 015.23-3.7h5.14c4.37.01 6.06 1.73 7.07 4.57.5 1.36.53 3.27.13 4.55-1.04 3.2-1.29 3.93-2.34 7.12a5.4 5.4 0 01-4.8 3.61s3.02-9.15 3.97-12.14a3.39 3.39 0 00-3.4-4.41c-2.01-.02-3.27-.01-5.28 0a2.68 2.68 0 00-2.54 1.8l-10.4 32.05zM155.4 479.45h-3.6L162.6 446a5.5 5.5 0 015.23-3.7c2.02-.02 3.11-.02 5.14 0 4.37.01 6.05 1.73 7.07 4.56.5 1.36.53 3.28.13 4.55-1.04 3.2-1.28 3.94-2.34 7.13a5.4 5.4 0 01-4.8 3.6s3.03-9.14 3.97-12.13a3.39 3.39 0 00-3.4-4.41c-2.01-.03-3.27-.02-5.28 0a2.68 2.68 0 00-2.54 1.8l-10.37 32.05zM169.43 469.87h7.92l-4.48 13.6-3.63-.02 3.37-10.27h-4.29l1.1-3.31z"/><path d="M187.07 452.53h3.6L179.85 486a5.5 5.5 0 01-5.23 3.7h-5.14c-4.37-.02-6.06-1.74-7.08-4.57a7.94 7.94 0 01-.12-4.55c1.04-3.2 1.28-3.94 2.34-7.13a5.4 5.4 0 014.8-3.6s-3.02 9.15-3.97 12.14a3.39 3.39 0 003.4 4.4c2.01.03 3.27.02 5.28 0a2.68 2.68 0 002.54-1.8l10.4-32.05zM282.22 364.1h-7.93l4.48-13.61 3.63.02-3.37 10.28h4.3l-1.11 3.3z"/><path d="M264.57 381.43h-3.6l10.83-33.45a5.5 5.5 0 015.23-3.7c2.02-.02 3.11-.02 5.13 0 4.38.01 6.06 1.73 7.08 4.56.49 1.36.53 3.28.13 4.55l-2.35 7.13a5.4 5.4 0 01-4.8 3.61s3.03-9.15 3.97-12.14a3.39 3.39 0 00-3.4-4.41c-2-.03-3.27-.01-5.28 0a2.68 2.68 0 00-2.54 1.8l-10.4 32.05zM278.6 371.85h7.93l-4.47 13.6-3.64-.02 3.37-10.27h-4.29l1.1-3.31z"/><path d="M296.25 354.51h3.6l-10.82 33.46a5.5 5.5 0 01-5.23 3.7h-5.14c-4.37-.02-6.06-1.74-7.08-4.57a7.94 7.94 0 01-.12-4.55l2.34-7.13a5.4 5.4 0 014.8-3.6s-3.02 9.15-3.97 12.14a3.39 3.39 0 003.4 4.41c2.01.02 3.27.01 5.28 0a2.68 2.68 0 002.54-1.8l10.4-32.06zM387.29 275.83h7.92l-4.47 13.61-3.63-.02 3.37-10.28h-4.3l1.11-3.31z"/><path d="M404.93 258.5h3.6l-10.82 33.45a5.5 5.5 0 01-5.23 3.7c-2.02.02-3.11.02-5.13 0-4.38-.01-6.06-1.73-7.08-4.57a7.94 7.94 0 01-.13-4.55c1.04-3.2 1.29-3.93 2.35-7.12a5.4 5.4 0 014.8-3.61s-3.03 9.15-3.98 12.14a3.39 3.39 0 003.4 4.41c2.02.03 3.28.01 5.28 0a2.68 2.68 0 002.55-1.8l10.4-32.05zM202.12 480.71h-7.93l4.48-13.6 3.63.02-3.37 10.27h4.3l-1.11 3.31z"/><path d="M184.47 498.05h-3.6l10.83-33.46a5.5 5.5 0 015.23-3.7h5.13c4.38.02 6.06 1.74 7.08 4.57.49 1.36.53 3.28.13 4.55l-2.34 7.13a5.4 5.4 0 01-4.81 3.6s3.03-9.15 3.98-12.14a3.39 3.39 0 00-3.4-4.4c-2.02-.03-3.27-.02-5.28 0a2.68 2.68 0 00-2.55 1.8l-10.4 32.05zM198.5 488.46h7.93l-4.47 13.61-3.64-.02 3.38-10.28h-4.3l1.1-3.3z"/><path d="M216.15 471.13h3.6l-10.82 33.45a5.5 5.5 0 01-5.23 3.7c-2.02.02-3.11.02-5.14 0-4.37-.01-6.05-1.73-7.07-4.56a7.94 7.94 0 01-.13-4.55l2.34-7.13a5.4 5.4 0 014.81-3.6s-3.03 9.14-3.98 12.13a3.39 3.39 0 003.4 4.42c2.01.02 3.27 0 5.28 0a2.68 2.68 0 002.55-1.81l10.4-32.05zM310.9 385.58h-7.93l4.48-13.6 3.63.02-3.37 10.27H312l-1.1 3.31z"/><path d="M293.25 402.92h-3.6l10.82-33.46a5.5 5.5 0 015.23-3.7h5.14c4.38.02 6.06 1.74 7.08 4.57.49 1.36.53 3.28.13 4.55L315.7 382a5.4 5.4 0 01-4.8 3.6s3.03-9.15 3.97-12.14a3.39 3.39 0 00-3.4-4.4c-2.01-.03-3.27-.02-5.28 0a2.68 2.68 0 00-2.54 1.8l-10.4 32.05zM307.28 393.33h7.93l-4.48 13.61-3.63-.02 3.37-10.27h-4.29l1.1-3.32z"/><path d="M324.93 376h3.6l-10.82 33.45a5.5 5.5 0 01-5.23 3.7c-2.02.02-3.12.02-5.14 0-4.38-.01-6.06-1.73-7.08-4.56a7.94 7.94 0 01-.13-4.55l2.35-7.13a5.4 5.4 0 014.8-3.6s-3.03 9.14-3.97 12.13a3.39 3.39 0 003.4 4.42c2.01.02 3.27 0 5.28 0a2.68 2.68 0 002.54-1.81l10.4-32.05zM419.6 289.64h-7.93l4.48-13.61 3.63.02-3.37 10.28h4.29l-1.1 3.3z"/><path d="M401.95 306.97h-3.6l10.82-33.45a5.5 5.5 0 015.23-3.7c2.02-.02 3.12-.01 5.14 0 4.38.01 6.06 1.73 7.08 4.56.49 1.37.53 3.28.13 4.56l-2.35 7.12a5.4 5.4 0 01-4.8 3.61s3.03-9.15 3.97-12.14a3.39 3.39 0 00-3.4-4.41c-2.01-.03-3.27-.01-5.28 0a2.68 2.68 0 00-2.54 1.8l-10.4 32.05zM415.99 297.39h7.92l-4.48 13.6-3.63-.01 3.37-10.28h-4.29l1.1-3.31z"/><path d="M433.63 280.06h3.6l-10.82 33.45a5.5 5.5 0 01-5.23 3.7c-2.02.02-3.12.01-5.14 0-4.37-.01-6.06-1.73-7.08-4.57a7.93 7.93 0 01-.12-4.55c1.04-3.2 1.29-3.93 2.34-7.12a5.4 5.4 0 014.8-3.61s-3.03 9.15-3.97 12.14a3.39 3.39 0 003.4 4.41c2.01.02 3.27.01 5.28 0a2.68 2.68 0 002.54-1.8l10.4-32.05zM230.8 502.2h-7.93l4.48-13.61 3.63.02-3.37 10.28h4.29l-1.1 3.3z"/><path d="M213.15 519.53h-3.6l10.82-33.45a5.5 5.5 0 015.23-3.7c2.02-.02 3.12-.02 5.14 0 4.38.01 6.06 1.73 7.08 4.56.49 1.36.53 3.28.13 4.55l-2.35 7.13a5.4 5.4 0 01-4.8 3.61s3.03-9.15 3.97-12.14a3.39 3.39 0 00-3.4-4.41c-2-.03-3.27-.01-5.28 0a2.68 2.68 0 00-2.54 1.8l-10.4 32.05zM227.19 509.95h7.92l-4.48 13.6-3.63-.02 3.37-10.27h-4.29l1.1-3.31z"/><path d="M244.83 492.62h3.6l-10.82 33.45a5.5 5.5 0 01-5.23 3.7h-5.14c-4.37-.01-6.06-1.74-7.08-4.57a7.94 7.94 0 01-.12-4.55c1.04-3.2 1.28-3.93 2.34-7.12a5.4 5.4 0 014.8-3.61s-3.03 9.15-3.97 12.14a3.39 3.39 0 003.4 4.41c2.01.02 3.27.01 5.28 0a2.68 2.68 0 002.54-1.8l10.4-32.05zM339.68 406.4h-7.92l4.48-13.6 3.63.02-3.37 10.27h4.29l-1.1 3.31z"/><path d="M322.04 423.74h-3.6l10.82-33.46a5.5 5.5 0 015.23-3.7h5.14c4.37.02 6.06 1.74 7.07 4.57.5 1.36.54 3.28.13 4.55l-2.34 7.13a5.4 5.4 0 01-4.8 3.6s3.02-9.15 3.97-12.14a3.39 3.39 0 00-3.4-4.4c-2.01-.03-3.27-.02-5.28 0a2.68 2.68 0 00-2.54 1.8l-10.4 32.05zM336.07 414.15H344l-4.48 13.61-3.63-.02 3.37-10.27h-4.3l1.11-3.32z"/><path d="M353.71 396.82h3.6l-10.82 33.45a5.5 5.5 0 01-5.23 3.7c-2.01.02-3.11.02-5.13 0-4.38-.01-6.06-1.73-7.08-4.56a7.94 7.94 0 01-.13-4.55c1.04-3.2 1.3-3.94 2.35-7.13a5.4 5.4 0 014.8-3.6s-3.03 9.14-3.97 12.13a3.39 3.39 0 003.4 4.42c2 .02 3.27 0 5.28 0a2.68 2.68 0 002.54-1.81l10.4-32.05zM448.37 310.46h-7.93l4.48-13.61 3.63.02-3.37 10.28h4.29l-1.1 3.3z"/><path d="M430.72 327.8h-3.6l10.82-33.46a5.5 5.5 0 015.24-3.7c2.01-.02 3.11-.02 5.13 0 4.38.01 6.06 1.73 7.08 4.56.49 1.37.53 3.28.13 4.55l-2.35 7.13a5.4 5.4 0 01-4.8 3.61s3.03-9.15 3.97-12.14a3.39 3.39 0 00-3.4-4.41c-2.01-.03-3.27-.01-5.28 0a2.68 2.68 0 00-2.54 1.8l-10.4 32.05zM444.76 318.2h7.92l-4.48 13.62-3.63-.02 3.37-10.28h-4.29l1.1-3.31z"/><path d="M462.4 300.88h3.6l-10.82 33.45a5.5 5.5 0 01-5.23 3.7c-2.02.02-3.12.01-5.14 0-4.37-.01-6.06-1.73-7.08-4.57a7.94 7.94 0 01-.12-4.55c1.04-3.2 1.28-3.93 2.34-7.12a5.4 5.4 0 014.8-3.61s-3.03 9.15-3.97 12.14a3.39 3.39 0 003.4 4.41c2.01.02 3.27.01 5.28 0a2.68 2.68 0 002.54-1.8l10.4-32.06zM259.58 523.02h-7.92l4.48-13.61 3.63.02-3.37 10.27h4.29l-1.1 3.32z"/><path d="M241.94 540.35h-3.6l10.82-33.46a5.5 5.5 0 015.23-3.7h5.14c4.38.02 6.06 1.74 7.08 4.57.49 1.36.53 3.28.13 4.55l-2.35 7.13a5.4 5.4 0 01-4.8 3.6s3.03-9.14 3.97-12.13a3.39 3.39 0 00-3.4-4.42c-2.01-.02-3.27 0-5.28 0a2.68 2.68 0 00-2.54 1.81l-10.4 32.05zM255.97 530.77h7.93l-4.48 13.6-3.63-.02 3.37-10.27h-4.29l1.1-3.31z"/><path d="M273.62 513.43h3.6l-10.83 33.46a5.5 5.5 0 01-5.22 3.7h-5.14c-4.38-.02-6.06-1.74-7.08-4.57a7.93 7.93 0 01-.13-4.55l2.35-7.13a5.4 5.4 0 014.8-3.6s-3.03 9.15-3.97 12.14a3.39 3.39 0 003.4 4.4c2.01.03 3.27.02 5.28 0a2.68 2.68 0 002.54-1.8l10.4-32.05zM369.98 426.55h-7.92l4.47-13.6 3.64.02-3.38 10.27h4.3l-1.1 3.31z"/><path d="M352.34 443.89h-3.6l10.82-33.46a5.5 5.5 0 015.23-3.7h5.14c4.37.02 6.06 1.74 7.07 4.57.5 1.36.54 3.28.13 4.55l-2.34 7.13a5.4 5.4 0 01-4.8 3.6s3.02-9.15 3.97-12.13a3.39 3.39 0 00-3.4-4.42c-2.01-.02-3.27 0-5.28 0a2.68 2.68 0 00-2.54 1.8l-10.4 32.06zM366.37 434.3h7.93l-4.48 13.61-3.63-.02 3.37-10.27h-4.3l1.11-3.32z"/><path d="M384.01 416.97h3.6l-10.82 33.46a5.5 5.5 0 01-5.23 3.7h-5.13c-4.38-.02-6.06-1.74-7.08-4.57a7.94 7.94 0 01-.13-4.55c1.04-3.2 1.3-3.94 2.35-7.13a5.4 5.4 0 014.8-3.6s-3.03 9.14-3.98 12.13a3.39 3.39 0 003.4 4.42c2.02.02 3.28 0 5.28 0a2.68 2.68 0 002.55-1.81l10.4-32.05zM478.68 330.61h-7.92l4.48-13.6 3.63.01-3.37 10.28h4.29l-1.1 3.31z"/><path d="M461.04 347.94h-3.6l10.82-33.45a5.5 5.5 0 015.23-3.7c2.02-.02 3.12-.01 5.14 0 4.37.01 6.06 1.73 7.08 4.57.49 1.36.53 3.27.12 4.55-1.04 3.2-1.28 3.93-2.34 7.12a5.4 5.4 0 01-4.8 3.61s3.02-9.15 3.97-12.14a3.39 3.39 0 00-3.4-4.41c-2.01-.02-3.27-.01-5.28 0a2.68 2.68 0 00-2.54 1.8l-10.4 32.05zM475.07 338.36H483l-4.48 13.61-3.63-.02 3.37-10.28h-4.3l1.11-3.31z"/><path d="M492.72 321.03h3.6l-10.82 33.45a5.5 5.5 0 01-5.24 3.7c-2.01.02-3.11.01-5.13 0-4.38-.01-6.06-1.73-7.08-4.57a7.94 7.94 0 01-.13-4.55l2.35-7.12a5.4 5.4 0 014.8-3.61s-3.03 9.15-3.97 12.14a3.39 3.39 0 003.4 4.41c2.01.03 3.27.01 5.28 0a2.68 2.68 0 002.54-1.8l10.4-32.05zM209.45 430.04h-7.92l4.48-13.61 3.63.02-3.37 10.27h4.29l-1.1 3.32z"/><path d="M191.81 447.37h-3.6l10.82-33.45a5.5 5.5 0 015.23-3.71h5.14c4.38.02 6.06 1.74 7.08 4.57.49 1.36.53 3.28.13 4.55l-2.35 7.13a5.4 5.4 0 01-4.8 3.6s3.03-9.14 3.97-12.13a3.39 3.39 0 00-3.4-4.42c-2.01-.02-3.27 0-5.28 0a2.68 2.68 0 00-2.54 1.81l-10.4 32.05zM205.84 437.79h7.93l-4.48 13.6-3.63-.02 3.37-10.27h-4.29l1.1-3.31z"/><path d="M223.49 420.45h3.6l-10.83 33.46a5.5 5.5 0 01-5.22 3.7h-5.14c-4.38-.02-6.06-1.74-7.08-4.57a7.93 7.93 0 01-.13-4.55l2.35-7.13a5.4 5.4 0 014.8-3.6s-3.03 9.15-3.97 12.14a3.39 3.39 0 003.4 4.4c2.01.03 3.27.02 5.28 0a2.68 2.68 0 002.54-1.8l10.4-32.05zM318.63 331.94h-7.92l4.48-13.6 3.63.02-3.37 10.27h4.29l-1.1 3.31z"/><path d="M301 349.28h-3.61l10.82-33.46a5.5 5.5 0 015.23-3.7h5.14c4.38.02 6.06 1.74 7.08 4.57.49 1.36.53 3.28.13 4.55l-2.35 7.13a5.4 5.4 0 01-4.8 3.6s3.03-9.15 3.97-12.14a3.39 3.39 0 00-3.4-4.4c-2.01-.03-3.27-.02-5.28 0a2.68 2.68 0 00-2.54 1.8l-10.4 32.05zM315.02 339.7h7.93l-4.48 13.6-3.63-.02 3.37-10.27h-4.29l1.1-3.32z"/><path d="M332.67 322.36h3.6l-10.82 33.45a5.5 5.5 0 01-5.23 3.7c-2.02.02-3.12.02-5.14 0-4.38-.01-6.06-1.73-7.08-4.56a7.93 7.93 0 01-.13-4.55l2.35-7.13a5.4 5.4 0 014.8-3.6s-3.03 9.14-3.97 12.13a3.39 3.39 0 003.4 4.42c2.01.02 3.27 0 5.28 0a2.68 2.68 0 002.54-1.81l10.4-32.05zM238.54 448.56h-7.93l4.48-13.61 3.63.02-3.37 10.28h4.3l-1.11 3.3z"/><path d="M220.9 465.9h-3.6l10.82-33.46a5.5 5.5 0 015.23-3.7c2.02-.02 3.11-.02 5.13 0 4.38.01 6.06 1.73 7.08 4.56.49 1.36.53 3.28.13 4.55-1.04 3.2-1.3 3.94-2.35 7.13a5.4 5.4 0 01-4.8 3.61s3.03-9.15 3.97-12.14a3.39 3.39 0 00-3.4-4.41c-2-.03-3.27-.01-5.28 0a2.68 2.68 0 00-2.54 1.8l-10.4 32.05zM234.93 456.3h7.92l-4.47 13.62-3.64-.03 3.37-10.27h-4.29l1.1-3.31z"/><path d="M252.57 438.98h3.6l-10.82 33.45a5.5 5.5 0 01-5.23 3.7h-5.14c-4.37-.01-6.06-1.74-7.07-4.57a7.93 7.93 0 01-.13-4.55c1.04-3.2 1.29-3.93 2.34-7.12a5.4 5.4 0 014.8-3.61s-3.02 9.15-3.97 12.14a3.39 3.39 0 003.4 4.41c2.01.02 3.27.01 5.28 0a2.68 2.68 0 002.54-1.8l10.4-32.05zM172.01 555.37h3.6l-10.8 33.45a5.5 5.5 0 01-5.22 3.7c-2.02.02-3.11.02-5.13 0-4.37-.01-6.06-1.73-7.08-4.56a7.94 7.94 0 01-.13-4.56c1.04-3.2 1.29-3.93 2.34-7.12a5.4 5.4 0 014.8-3.61s-3.02 9.15-3.97 12.14a3.39 3.39 0 003.4 4.41c2.02.03 3.27.01 5.28 0a2.68 2.68 0 002.54-1.8l10.37-32.05zM347.31 353.5h-7.92l4.48-13.6 3.63.02-3.37 10.27h4.29l-1.1 3.31z"/><path d="M329.67 370.84h-3.6l10.82-33.46a5.5 5.5 0 015.23-3.7h5.14c4.37.02 6.06 1.74 7.07 4.57.5 1.36.54 3.28.13 4.55l-2.34 7.13a5.4 5.4 0 01-4.8 3.6s3.02-9.15 3.97-12.14a3.39 3.39 0 00-3.4-4.4c-2.01-.03-3.27-.02-5.28 0a2.68 2.68 0 00-2.54 1.8l-10.4 32.05zM343.7 361.25h7.93l-4.48 13.61-3.63-.02 3.37-10.27h-4.3l1.11-3.32z"/><path d="M361.35 343.92h3.6l-10.83 33.45a5.5 5.5 0 01-5.23 3.7c-2.01.02-3.11.02-5.13 0-4.38-.01-6.06-1.73-7.08-4.56a7.94 7.94 0 01-.13-4.55l2.35-7.13a5.4 5.4 0 014.8-3.6s-3.03 9.14-3.97 12.13a3.39 3.39 0 003.4 4.41c2 .03 3.27.02 5.28 0a2.68 2.68 0 002.54-1.8l10.4-32.05zM267.21 470.12h-7.92l4.48-13.61 3.63.02-3.37 10.28h4.29l-1.1 3.3z"/><path d="M249.57 487.45h-3.6L256.79 454a5.5 5.5 0 015.23-3.7c2.02-.02 3.12-.02 5.14 0 4.38.01 6.06 1.73 7.08 4.56.49 1.36.53 3.28.13 4.55l-2.35 7.13a5.4 5.4 0 01-4.8 3.61s3.03-9.15 3.97-12.14a3.39 3.39 0 00-3.4-4.41c-2.01-.03-3.27-.02-5.28 0a2.68 2.68 0 00-2.54 1.8l-10.4 32.05zM263.6 477.87h7.93l-4.48 13.6-3.63-.02 3.37-10.27h-4.29l1.1-3.31z"/><path d="M281.25 460.54h3.6l-10.82 33.45a5.5 5.5 0 01-5.23 3.7h-5.14c-4.38-.01-6.06-1.74-7.08-4.57a7.94 7.94 0 01-.13-4.55l2.35-7.12a5.4 5.4 0 014.8-3.61s-3.03 9.15-3.97 12.14a3.39 3.39 0 003.4 4.41c2.01.02 3.27.01 5.28 0a2.68 2.68 0 002.54-1.8l10.4-32.05zM186.78 585.84h-7.92l4.48-13.6 3.63.02-3.37 10.27h4.29l-1.1 3.31z"/><path d="M169.14 603.18h-3.6l10.82-33.46a5.5 5.5 0 015.23-3.7h5.14c4.38.02 6.06 1.74 7.08 4.57.49 1.36.53 3.28.13 4.55l-2.35 7.13a5.4 5.4 0 01-4.8 3.6s3.03-9.15 3.97-12.14a3.39 3.39 0 00-3.4-4.4c-2.01-.03-3.27-.02-5.28 0a2.68 2.68 0 00-2.54 1.8l-10.4 32.05zM183.18 593.6h7.92l-4.48 13.6-3.63-.02 3.37-10.27h-4.29l1.1-3.32z"/><path d="M200.82 576.26h3.6l-10.82 33.46a5.5 5.5 0 01-5.23 3.7h-5.14c-4.38-.02-6.06-1.74-7.08-4.57a7.94 7.94 0 01-.13-4.55l2.35-7.13a5.4 5.4 0 014.8-3.6s-3.03 9.14-3.97 12.13a3.39 3.39 0 003.4 4.42c2.01.02 3.27 0 5.28 0a2.68 2.68 0 002.54-1.81l10.4-32.05zM376.1 374.32h-7.92l4.47-13.6 3.64.02L372.9 371h4.3l-1.1 3.31z"/><path d="M358.46 391.65h-3.6l10.82-33.45a5.5 5.5 0 015.23-3.7h5.14c4.37.01 6.05 1.74 7.07 4.57.5 1.36.53 3.28.13 4.55-1.04 3.2-1.29 3.94-2.34 7.12a5.4 5.4 0 01-4.81 3.61s3.03-9.15 3.98-12.14a3.39 3.39 0 00-3.4-4.41c-2.01-.02-3.27-.01-5.28 0a2.68 2.68 0 00-2.55 1.8l-10.4 32.05zM372.5 382.07h7.92l-4.48 13.61-3.63-.02 3.37-10.28h-4.3l1.11-3.3z"/><path d="M390.13 364.74h3.6l-10.82 33.45a5.5 5.5 0 01-5.23 3.7c-2.02.02-3.11.02-5.13 0-4.38-.01-6.06-1.73-7.08-4.56a7.94 7.94 0 01-.13-4.55c1.04-3.2 1.29-3.94 2.35-7.13a5.4 5.4 0 014.8-3.61s-3.03 9.15-3.98 12.14a3.39 3.39 0 003.4 4.41c2.02.03 3.28.02 5.28 0a2.68 2.68 0 002.55-1.8l10.4-32.05zM467.16 295.71h-3.6l10.8-33.45a5.5 5.5 0 015.22-3.7c2.02-.02 3.11-.02 5.13 0 4.38.01 6.06 1.73 7.08 4.56.49 1.36.53 3.28.13 4.55l-2.34 7.13a5.4 5.4 0 01-4.8 3.61s3.03-9.15 3.97-12.14a3.39 3.39 0 00-3.4-4.41c-2.02-.03-3.27-.01-5.28 0a2.68 2.68 0 00-2.54 1.8l-10.37 32.05zM481.17 286.13h7.93l-4.48 13.6-3.63-.02 3.37-10.27h-4.29l1.1-3.31z"/><path d="M498.82 268.8h3.6l-10.82 33.45a5.5 5.5 0 01-5.23 3.7h-5.14c-4.38-.01-6.06-1.74-7.08-4.57a7.94 7.94 0 01-.13-4.55l2.35-7.12a5.4 5.4 0 014.8-3.61s-3.03 9.15-3.97 12.14a3.39 3.39 0 003.4 4.41c2.01.02 3.27.01 5.28 0a2.68 2.68 0 002.54-1.8l10.4-32.06zM295.98 490.94h-7.92l4.48-13.61 3.63.02-3.37 10.27h4.29l-1.1 3.32z"/><path d="M278.34 508.27h-3.6l10.82-33.45a5.5 5.5 0 015.23-3.7c2.02-.02 3.12-.02 5.14 0 4.38.01 6.06 1.73 7.08 4.56.49 1.36.53 3.28.13 4.55l-2.35 7.13a5.4 5.4 0 01-4.8 3.6s3.03-9.14 3.97-12.13a3.39 3.39 0 00-3.4-4.41c-2.01-.03-3.27-.02-5.28 0a2.68 2.68 0 00-2.54 1.8l-10.4 32.05zM292.37 498.69h7.93l-4.48 13.6-3.63-.02 3.37-10.27h-4.29l1.1-3.31z"/><path d="M310.02 481.35h3.6l-10.82 33.46a5.5 5.5 0 01-5.23 3.7h-5.14c-4.38-.02-6.06-1.74-7.08-4.57a7.93 7.93 0 01-.13-4.55l2.35-7.13a5.4 5.4 0 014.8-3.6s-3.03 9.15-3.97 12.14a3.39 3.39 0 003.4 4.4c2.01.03 3.27.02 5.28 0a2.68 2.68 0 002.54-1.8l10.4-32.05zM406.4 394.47h-7.92l4.47-13.6 3.63.02-3.37 10.27h4.3l-1.11 3.31z"/><path d="M388.76 411.8h-3.6l10.82-33.45a5.5 5.5 0 015.23-3.7h5.14c4.37.02 6.05 1.74 7.07 4.57.5 1.36.53 3.28.13 4.55l-2.34 7.13a5.4 5.4 0 01-4.81 3.6s3.03-9.15 3.98-12.14a3.39 3.39 0 00-3.4-4.4c-2.02-.03-3.27-.02-5.28 0a2.68 2.68 0 00-2.55 1.8l-10.4 32.05zM402.79 402.22h7.92l-4.47 13.61-3.63-.02 3.37-10.27h-4.3l1.11-3.32z"/><path d="M420.43 384.9h3.6l-10.82 33.45a5.5 5.5 0 01-5.23 3.7h-5.13c-4.38-.02-6.06-1.74-7.08-4.57a7.93 7.93 0 01-.13-4.55l2.34-7.13a5.4 5.4 0 014.81-3.6s-3.03 9.14-3.98 12.13a3.39 3.39 0 003.4 4.42c2.02.02 3.28 0 5.28 0a2.68 2.68 0 002.55-1.81l10.4-32.05zM515.1 298.53h-7.92l4.47-13.61 3.64.02-3.37 10.28h4.29l-1.1 3.31z"/><path d="M497.46 315.86h-3.6l10.82-33.45a5.5 5.5 0 015.23-3.7c2.02-.02 3.12-.01 5.14 0 4.37.01 6.06 1.73 7.07 4.56.5 1.37.53 3.28.13 4.56-1.04 3.2-1.29 3.93-2.34 7.12a5.4 5.4 0 01-4.8 3.61s3.02-9.15 3.97-12.14a3.39 3.39 0 00-3.4-4.41c-2.01-.03-3.27-.01-5.28 0a2.68 2.68 0 00-2.54 1.8l-10.4 32.05zM511.5 306.28h7.92l-4.48 13.6-3.63-.01 3.37-10.28h-4.3l1.11-3.31z"/><path d="M529.13 288.95h3.6l-10.82 33.45a5.5 5.5 0 01-5.23 3.7c-2.02.02-3.11.01-5.13 0-4.38-.01-6.06-1.73-7.08-4.57a7.94 7.94 0 01-.13-4.55c1.04-3.2 1.3-3.93 2.35-7.12a5.4 5.4 0 014.8-3.61s-3.03 9.15-3.98 12.14a3.39 3.39 0 003.4 4.41c2.02.02 3.28.01 5.29 0a2.68 2.68 0 002.54-1.8l10.4-32.05zM246.1 395.51h-7.93l4.48-13.6 3.63.01-3.37 10.28h4.29l-1.1 3.31z"/><path d="M228.45 412.84h-3.6l10.82-33.45a5.5 5.5 0 015.23-3.7h5.14c4.37.01 6.06 1.73 7.08 4.57.48 1.36.53 3.28.12 4.55-1.04 3.2-1.28 3.93-2.34 7.12a5.4 5.4 0 01-4.8 3.61s3.03-9.15 3.97-12.14a3.39 3.39 0 00-3.4-4.41c-2.01-.03-3.27-.01-5.28 0a2.68 2.68 0 00-2.54 1.8l-10.4 32.05zM242.48 403.26h7.93l-4.48 13.61-3.63-.02 3.37-10.28h-4.3l1.11-3.3z"/><path d="M260.13 385.93h3.6l-10.83 33.45a5.5 5.5 0 01-5.22 3.7c-2.02.02-3.12.02-5.14 0-4.38-.01-6.06-1.73-7.08-4.56a7.93 7.93 0 01-.13-4.56l2.35-7.12a5.4 5.4 0 014.8-3.61s-3.03 9.15-3.97 12.14a3.39 3.39 0 003.4 4.41c2.01.03 3.27.01 5.28 0a2.68 2.68 0 002.54-1.8l10.4-32.05zM354.8 299.57h-7.93l4.48-13.61 3.63.02-3.37 10.27h4.29l-1.1 3.32z"/><path d="M337.15 316.9h-3.6l10.82-33.45a5.5 5.5 0 015.23-3.7c2.02-.02 3.12-.02 5.14 0 4.38.01 6.06 1.73 7.08 4.56.49 1.36.53 3.28.13 4.55L359.6 296a5.4 5.4 0 01-4.8 3.61s3.03-9.15 3.97-12.14a3.39 3.39 0 00-3.4-4.41c-2.01-.03-3.27-.01-5.28 0a2.68 2.68 0 00-2.54 1.8l-10.4 32.05zM351.19 307.32h7.92l-4.48 13.6-3.63-.02 3.37-10.27h-4.29l1.1-3.31z"/><path d="M368.83 289.98h3.6l-10.82 33.46a5.5 5.5 0 01-5.23 3.7h-5.14c-4.38-.02-6.06-1.74-7.08-4.57a7.93 7.93 0 01-.13-4.55l2.35-7.13a5.4 5.4 0 014.8-3.6s-3.03 9.15-3.97 12.14a3.39 3.39 0 003.4 4.41c2.01.02 3.27.01 5.28 0a2.68 2.68 0 002.54-1.8l10.4-32.06zM148.37 529.46h-3.6l10.8-33.46a5.5 5.5 0 015.22-3.7h5.14c4.37.02 6.05 1.74 7.07 4.57.49 1.36.53 3.28.13 4.55-1.04 3.2-1.28 3.94-2.34 7.13a5.4 5.4 0 01-4.8 3.6s3.03-9.14 3.97-12.13a3.39 3.39 0 00-3.4-4.42c-2.01-.02-3.27 0-5.28 0a2.68 2.68 0 00-2.54 1.81l-10.37 32.05zM180 502.54h3.6L172.8 536a5.5 5.5 0 01-5.23 3.7h-5.13c-4.37-.02-6.06-1.74-7.08-4.57a7.93 7.93 0 01-.13-4.55l2.34-7.13a5.4 5.4 0 014.8-3.6s-3.02 9.15-3.97 12.14a3.39 3.39 0 003.4 4.4c2.02.03 3.27.02 5.28 0a2.68 2.68 0 002.54-1.8L180 502.54zM274.79 417.07h-7.93l4.48-13.6 3.63.01-3.37 10.28h4.3l-1.11 3.31z"/><path d="M257.14 434.4h-3.6l10.83-33.45a5.5 5.5 0 015.23-3.7c2.02-.02 3.11-.01 5.13 0 4.38.01 6.06 1.73 7.08 4.57.5 1.36.53 3.28.13 4.55-1.04 3.2-1.29 3.93-2.34 7.12a5.4 5.4 0 01-4.81 3.61s3.03-9.15 3.98-12.14a3.39 3.39 0 00-3.4-4.41c-2.02-.03-3.27-.01-5.28 0a2.68 2.68 0 00-2.55 1.8l-10.4 32.05zM271.18 424.82h7.92l-4.47 13.61-3.63-.02 3.37-10.28h-4.3l1.1-3.3z"/><path d="M288.82 407.49h3.6l-10.82 33.45a5.5 5.5 0 01-5.23 3.7c-2.02.02-3.11.01-5.14 0-4.37-.01-6.05-1.73-7.07-4.56a7.93 7.93 0 01-.13-4.56c1.04-3.2 1.29-3.93 2.34-7.12a5.4 5.4 0 014.81-3.61s-3.03 9.15-3.98 12.14a3.39 3.39 0 003.4 4.41c2.02.03 3.27.01 5.28 0a2.68 2.68 0 002.55-1.8l10.4-32.05zM383.47 321.05h-7.92l4.47-13.6 3.64.02-3.37 10.27h4.29l-1.1 3.31z"/><path d="M365.83 338.39h-3.6l10.82-33.46a5.5 5.5 0 015.23-3.7h5.14c4.37.02 6.06 1.74 7.07 4.57.5 1.36.54 3.28.13 4.55l-2.34 7.13a5.4 5.4 0 01-4.8 3.6s3.02-9.15 3.97-12.14a3.39 3.39 0 00-3.4-4.4c-2.01-.03-3.27-.02-5.28 0a2.68 2.68 0 00-2.54 1.8l-10.4 32.05zM379.86 328.8h7.93l-4.48 13.61-3.63-.02 3.37-10.27h-4.3l1.11-3.32z"/><path d="M397.5 311.47h3.6l-10.82 33.45a5.5 5.5 0 01-5.23 3.7c-2.01.02-3.11.02-5.13 0-4.38-.01-6.06-1.73-7.08-4.56a7.94 7.94 0 01-.13-4.55l2.35-7.13a5.4 5.4 0 014.8-3.61s-3.03 9.15-3.97 12.14a3.39 3.39 0 003.4 4.41c2 .03 3.27.01 5.28 0a2.68 2.68 0 002.54-1.8l10.4-32.05zM194.67 533.69h-7.92l4.47-13.61 3.64.02-3.37 10.27h4.29l-1.1 3.32z"/><path d="M177.03 551.02h-3.6l10.82-33.46a5.5 5.5 0 015.23-3.7h5.14c4.37.02 6.06 1.74 7.07 4.57.5 1.36.54 3.28.13 4.55l-2.34 7.13a5.4 5.4 0 01-4.8 3.6s3.03-9.14 3.97-12.13a3.39 3.39 0 00-3.4-4.42c-2.01-.02-3.27 0-5.28 0a2.68 2.68 0 00-2.54 1.81l-10.4 32.05zM191.06 541.44H199l-4.48 13.6-3.63-.02 3.37-10.27h-4.3l1.11-3.31z"/><path d="M208.7 524.1h3.6l-10.82 33.46a5.5 5.5 0 01-5.22 3.7h-5.14c-4.38-.02-6.06-1.74-7.08-4.57a7.94 7.94 0 01-.13-4.55l2.35-7.13a5.4 5.4 0 014.8-3.6s-3.03 9.15-3.97 12.13a3.39 3.39 0 003.4 4.42c2 .02 3.27 0 5.28 0a2.68 2.68 0 002.54-1.8l10.4-32.06zM303.56 437.89h-7.93l4.48-13.61 3.63.02-3.37 10.28h4.3l-1.11 3.3z"/><path d="M285.92 455.22h-3.6l10.82-33.45a5.5 5.5 0 015.23-3.7c2.02-.02 3.11-.01 5.13 0 4.38.01 6.06 1.73 7.08 4.56.5 1.37.53 3.28.13 4.56-1.04 3.2-1.29 3.93-2.34 7.12a5.4 5.4 0 01-4.81 3.61s3.03-9.15 3.98-12.14a3.39 3.39 0 00-3.4-4.41c-2.02-.03-3.27-.01-5.28 0a2.68 2.68 0 00-2.55 1.8l-10.4 32.05zM299.95 445.64h7.92l-4.47 13.6-3.63-.01 3.37-10.28h-4.3l1.1-3.31z"/><path d="M317.6 428.3h3.6l-10.83 33.46a5.5 5.5 0 01-5.23 3.7c-2.02.02-3.11.01-5.14 0-4.37-.01-6.05-1.73-7.07-4.57a7.93 7.93 0 01-.13-4.55c1.04-3.2 1.29-3.93 2.34-7.12a5.4 5.4 0 014.81-3.61s-3.03 9.15-3.98 12.14a3.39 3.39 0 003.4 4.41c2.01.02 3.27.01 5.28 0a2.68 2.68 0 002.55-1.8l10.4-32.05zM412.24 341.94h-7.92l4.48-13.6 3.63.02-3.37 10.27h4.29l-1.1 3.31z"/><path d="M394.6 359.28H391l10.82-33.46a5.5 5.5 0 015.23-3.7h5.14c4.37.02 6.06 1.74 7.07 4.57.5 1.36.54 3.28.13 4.55l-2.34 7.13a5.4 5.4 0 01-4.8 3.6s3.02-9.15 3.97-12.13a3.39 3.39 0 00-3.4-4.42c-2.01-.02-3.27 0-5.28 0a2.68 2.68 0 00-2.54 1.8l-10.4 32.06zM408.63 349.7h7.93l-4.48 13.6-3.63-.02 3.37-10.27h-4.3l1.11-3.31z"/><path d="M426.27 332.36h3.6l-10.82 33.46a5.5 5.5 0 01-5.23 3.7h-5.13c-4.38-.02-6.06-1.74-7.08-4.57a7.93 7.93 0 01-.13-4.55c1.04-3.2 1.3-3.94 2.35-7.13a5.4 5.4 0 014.8-3.6s-3.03 9.14-3.97 12.13a3.39 3.39 0 003.4 4.42c2 .02 3.27 0 5.28 0a2.68 2.68 0 002.54-1.8l10.4-32.06zM223.44 554.5h-7.92l4.47-13.6 3.64.02-3.37 10.27h4.29l-1.1 3.31z"/><path d="M205.8 571.84h-3.6l10.82-33.46a5.5 5.5 0 015.23-3.7h5.14c4.37.02 6.06 1.74 7.08 4.57.48 1.36.53 3.28.12 4.55l-2.34 7.13a5.4 5.4 0 01-4.8 3.6s3.02-9.14 3.97-12.13a3.39 3.39 0 00-3.4-4.42c-2.01-.02-3.27 0-5.28 0a2.68 2.68 0 00-2.54 1.8l-10.4 32.06zM219.83 562.25h7.93l-4.48 13.61-3.63-.02 3.37-10.27h-4.3l1.11-3.32z"/><path d="M237.48 544.92h3.6l-10.83 33.46a5.5 5.5 0 01-5.23 3.7h-5.13c-4.38-.02-6.06-1.74-7.08-4.57a7.94 7.94 0 01-.13-4.55c1.04-3.2 1.3-3.94 2.35-7.13a5.4 5.4 0 014.8-3.6s-3.03 9.14-3.97 12.13a3.39 3.39 0 003.4 4.42c2 .02 3.27 0 5.28 0a2.68 2.68 0 002.54-1.8l10.4-32.06zM333.86 458.04h-7.93l4.48-13.6 3.63.01-3.37 10.28h4.3l-1.11 3.31z"/><path d="M316.21 475.38h-3.6l10.83-33.46a5.5 5.5 0 015.23-3.7c2.02-.02 3.11-.01 5.13 0 4.38.01 6.06 1.73 7.08 4.57.49 1.36.53 3.28.13 4.55-1.04 3.2-1.29 3.93-2.34 7.12a5.4 5.4 0 01-4.81 3.61s3.03-9.15 3.98-12.14a3.39 3.39 0 00-3.4-4.41c-2.02-.02-3.28-.01-5.28 0a2.68 2.68 0 00-2.55 1.8l-10.4 32.06zM330.25 465.8h7.92l-4.47 13.6-3.63-.02 3.37-10.27h-4.3l1.1-3.32z"/><path d="M347.9 448.46h3.6l-10.83 33.45a5.5 5.5 0 01-5.23 3.7c-2.02.02-3.12.02-5.14 0-4.37-.01-6.06-1.73-7.07-4.56a7.94 7.94 0 01-.13-4.55l2.34-7.13a5.4 5.4 0 014.8-3.61s-3.02 9.15-3.97 12.14a3.39 3.39 0 003.4 4.41c2.01.03 3.27.01 5.28 0a2.68 2.68 0 002.55-1.8l10.4-32.05zM442.56 362.1h-7.92l4.47-13.61 3.63.02-3.37 10.28h4.3l-1.11 3.3z"/><path d="M424.92 379.43h-3.6l10.82-33.45a5.5 5.5 0 015.23-3.7c2.02-.02 3.11-.02 5.14 0 4.37.01 6.05 1.73 7.07 4.56.5 1.36.53 3.28.13 4.55l-2.34 7.13a5.4 5.4 0 01-4.81 3.61s3.03-9.15 3.98-12.14a3.39 3.39 0 00-3.4-4.42c-2.01-.02-3.27 0-5.28 0a2.68 2.68 0 00-2.55 1.81l-10.4 32.05zM438.95 369.85h7.93l-4.48 13.6-3.63-.02 3.37-10.27h-4.3l1.11-3.31z"/><path d="M456.6 352.51h3.6l-10.83 33.46a5.5 5.5 0 01-5.23 3.7h-5.13c-4.38-.02-6.06-1.74-7.08-4.57a7.93 7.93 0 01-.13-4.55l2.34-7.13a5.4 5.4 0 014.81-3.6s-3.03 9.15-3.98 12.14a3.39 3.39 0 003.4 4.4c2.02.03 3.27.02 5.28 0a2.68 2.68 0 002.55-1.8l10.4-32.05zM565.28 257.38h3.6l-10.8 33.46a5.5 5.5 0 01-5.22 3.7h-5.14c-4.37-.02-6.05-1.74-7.07-4.57a7.94 7.94 0 01-.13-4.55c1.04-3.2 1.28-3.94 2.34-7.13a5.4 5.4 0 014.8-3.6s-3.03 9.15-3.97 12.14a3.39 3.39 0 003.4 4.41c2.01.02 3.27.01 5.28 0a2.68 2.68 0 002.54-1.8l10.37-32.06zM147.02 302.68h-3.6l10.8-33.46a5.5 5.5 0 015.23-3.7h5.13c4.37.02 6.05 1.74 7.07 4.57.5 1.36.54 3.28.14 4.55l-2.34 7.13a5.4 5.4 0 01-4.8 3.6s3.02-9.15 3.96-12.14a3.39 3.39 0 00-3.4-4.41c-2-.02-3.27-.01-5.27 0a2.68 2.68 0 00-2.54 1.8l-10.38 32.06zM178.65 275.76h3.6l-10.8 33.45a5.5 5.5 0 01-5.22 3.7c-2.02.02-3.12.02-5.14 0-4.37-.01-6.05-1.73-7.07-4.56a7.94 7.94 0 01-.13-4.55l2.33-7.13a5.4 5.4 0 014.8-3.61s-3.02 9.15-3.96 12.14a3.39 3.39 0 003.4 4.41c2.01.03 3.27.01 5.28 0a2.68 2.68 0 002.54-1.8l10.37-32.05zM193.73 303.86h-7.92l4.47-13.6 3.64.02-3.37 10.27h4.29l-1.1 3.31z"/><path d="M176.09 321.2h-3.6l10.82-33.46a5.5 5.5 0 015.23-3.7h5.14c4.37.02 6.06 1.74 7.07 4.57.5 1.36.54 3.28.13 4.55l-2.34 7.13a5.4 5.4 0 01-4.8 3.6s3.02-9.15 3.97-12.13a3.39 3.39 0 00-3.4-4.42c-2.01-.02-3.27 0-5.28 0a2.68 2.68 0 00-2.54 1.8l-10.4 32.06zM190.12 311.62h7.93l-4.48 13.6-3.63-.02 3.37-10.27h-4.3l1.11-3.31z"/><path d="M207.77 294.28h3.6l-10.83 33.46a5.5 5.5 0 01-5.22 3.7h-5.14c-4.38-.02-6.06-1.74-7.08-4.57a7.93 7.93 0 01-.13-4.55c1.04-3.2 1.3-3.94 2.35-7.13a5.4 5.4 0 014.8-3.6s-3.03 9.14-3.97 12.13a3.39 3.39 0 003.4 4.42c2 .02 3.27 0 5.28 0a2.68 2.68 0 002.54-1.8l10.4-32.06zM222.43 325.42h-7.93l4.48-13.6 3.63.02-3.37 10.27h4.3l-1.11 3.31z"/><path d="M204.78 342.76h-3.6l10.83-33.46a5.5 5.5 0 015.23-3.7h5.13c4.38.02 6.06 1.74 7.08 4.57.49 1.36.53 3.28.13 4.55l-2.34 7.13a5.4 5.4 0 01-4.81 3.6s3.03-9.15 3.98-12.14a3.39 3.39 0 00-3.4-4.4c-2.02-.03-3.27-.02-5.28 0a2.68 2.68 0 00-2.55 1.8l-10.4 32.05zM218.82 333.17h7.92l-4.47 13.61-3.64-.02 3.38-10.27h-4.3l1.1-3.32z"/><path d="M236.46 315.84h3.6l-10.82 33.46a5.5 5.5 0 01-5.23 3.7h-5.14c-4.37-.02-6.05-1.74-7.07-4.57a7.94 7.94 0 01-.13-4.55l2.34-7.13a5.4 5.4 0 014.81-3.6s-3.03 9.14-3.98 12.13a3.39 3.39 0 003.4 4.42c2.01.02 3.27 0 5.28 0a2.68 2.68 0 002.55-1.81l10.4-32.05zM251.2 346.24h-7.93l4.48-13.6 3.63.02-3.37 10.27h4.3l-1.11 3.31z"/><path d="M233.55 363.58h-3.6l10.83-33.46a5.5 5.5 0 015.23-3.7h5.14c4.37.02 6.05 1.74 7.07 4.57.49 1.36.53 3.28.13 4.55-1.04 3.2-1.29 3.94-2.35 7.13a5.4 5.4 0 01-4.8 3.6s3.03-9.15 3.98-12.14a3.39 3.39 0 00-3.4-4.4c-2.02-.03-3.28-.02-5.28 0a2.68 2.68 0 00-2.55 1.8l-10.4 32.05zM247.59 354h7.92l-4.47 13.6-3.63-.02 3.37-10.27h-4.3l1.1-3.32z"/><path d="M265.23 336.66h3.6l-10.82 33.45a5.5 5.5 0 01-5.23 3.7c-2.02.02-3.12.02-5.14 0-4.37-.01-6.05-1.73-7.07-4.56a7.94 7.94 0 01-.13-4.55l2.34-7.13a5.4 5.4 0 014.81-3.6s-3.03 9.14-3.98 12.13a3.39 3.39 0 003.4 4.41c2.02.03 3.27.02 5.28 0a2.68 2.68 0 002.55-1.8l10.4-32.05zM212.53 289.12h-3.6l10.8-33.46a5.5 5.5 0 015.22-3.7h5.13c4.37.02 6.06 1.74 7.08 4.57.49 1.36.53 3.28.13 4.55l-2.34 7.13a5.4 5.4 0 01-4.8 3.6s3.02-9.15 3.97-12.13a3.39 3.39 0 00-3.4-4.42c-2.02-.02-3.28 0-5.28 0a2.68 2.68 0 00-2.54 1.8l-10.38 32.06zM226.54 279.53h7.93l-4.48 13.61-3.63-.02 3.37-10.27h-4.3l1.11-3.32z"/><path d="M244.18 262.2h3.6l-10.82 33.46a5.5 5.5 0 01-5.23 3.7h-5.13c-4.38-.02-6.06-1.74-7.08-4.57a7.93 7.93 0 01-.13-4.55c1.04-3.2 1.29-3.94 2.35-7.13a5.4 5.4 0 014.8-3.6s-3.03 9.14-3.97 12.13a3.39 3.39 0 003.4 4.42c2 .02 3.27 0 5.28 0a2.68 2.68 0 002.54-1.81l10.4-32.05zM258.85 293.27h-7.93l4.48-13.61 3.63.02-3.37 10.28h4.3l-1.11 3.31z"/><path d="M241.2 310.6h-3.6l10.83-33.45a5.5 5.5 0 015.23-3.7c2.02-.02 3.11-.01 5.13 0 4.38.01 6.06 1.73 7.08 4.57.49 1.36.53 3.27.13 4.55l-2.35 7.12a5.4 5.4 0 01-4.8 3.61s3.03-9.15 3.97-12.14a3.39 3.39 0 00-3.4-4.41c-2-.03-3.27-.01-5.28 0a2.68 2.68 0 00-2.54 1.8l-10.4 32.05zM255.24 301.02h7.92l-4.48 13.61-3.63-.02 3.37-10.28h-4.29l1.1-3.31z"/><path d="M272.88 283.69h3.6l-10.82 33.45a5.5 5.5 0 01-5.23 3.7c-2.02.02-3.12.01-5.14 0-4.37-.01-6.06-1.73-7.07-4.57a7.93 7.93 0 01-.13-4.55c1.04-3.2 1.29-3.93 2.34-7.12a5.4 5.4 0 014.8-3.61s-3.02 9.15-3.97 12.14a3.39 3.39 0 003.4 4.41c2.01.03 3.27.01 5.28 0a2.68 2.68 0 002.54-1.8l10.4-32.05zM178.42 409h-7.93l4.48-13.61 3.63.02-3.37 10.27h4.3l-1.11 3.31z"/><path d="M160.77 426.33h-3.6L168 392.87a5.5 5.5 0 015.23-3.7h5.13c4.38.02 6.06 1.74 7.08 4.57.49 1.36.53 3.28.13 4.55-1.04 3.2-1.3 3.94-2.35 7.13a5.4 5.4 0 01-4.8 3.6s3.03-9.14 3.98-12.13a3.39 3.39 0 00-3.4-4.42c-2.02-.02-3.28 0-5.28 0a2.68 2.68 0 00-2.55 1.81l-10.4 32.05zM174.8 416.75h7.93l-4.47 13.6-3.64-.02 3.37-10.27h-4.29l1.1-3.31z"/><path d="M192.45 399.41h3.6l-10.82 33.46a5.5 5.5 0 01-5.23 3.7h-5.14c-4.37-.02-6.06-1.74-7.07-4.57a7.94 7.94 0 01-.13-4.55l2.34-7.13a5.4 5.4 0 014.8-3.6s-3.02 9.15-3.97 12.13a3.39 3.39 0 003.4 4.42c2.01.02 3.27 0 5.28 0a2.68 2.68 0 002.54-1.8l10.4-32.06zM287.62 314.16h-7.93l4.48-13.6 3.63.02-3.37 10.27h4.3l-1.11 3.31z"/><path d="M269.97 331.5h-3.6l10.83-33.46a5.5 5.5 0 015.23-3.7h5.13c4.38.02 6.06 1.74 7.08 4.57.49 1.36.53 3.28.13 4.55-1.04 3.2-1.3 3.94-2.35 7.13a5.4 5.4 0 01-4.8 3.6s3.03-9.15 3.97-12.14a3.39 3.39 0 00-3.4-4.4c-2-.03-3.27-.02-5.28 0a2.68 2.68 0 00-2.54 1.8l-10.4 32.05zM284 321.91h7.93l-4.48 13.61-3.63-.02 3.37-10.27h-4.29l1.1-3.32z"/><path d="M301.65 304.58h3.6l-10.82 33.45a5.5 5.5 0 01-5.23 3.7c-2.02.02-3.12.02-5.14 0-4.37-.01-6.06-1.73-7.07-4.56a7.94 7.94 0 01-.13-4.55l2.34-7.13a5.4 5.4 0 014.8-3.61s-3.02 9.15-3.97 12.14a3.39 3.39 0 003.4 4.42c2.01.02 3.27 0 5.28 0a2.68 2.68 0 002.54-1.81l10.4-32.05zM171.62 325.77h3.6l-10.8 33.45a5.5 5.5 0 01-5.22 3.7c-2.01.02-3.1.02-5.13 0-4.37-.01-6.05-1.73-7.07-4.56a7.94 7.94 0 01-.13-4.55c1.03-3.2 1.28-3.94 2.33-7.13a5.4 5.4 0 014.8-3.61s-3.02 9.15-3.96 12.14a3.39 3.39 0 003.4 4.41c2 .03 3.27.01 5.27 0a2.68 2.68 0 002.54-1.8l10.37-32.05zM186.3 356.84h-7.92l4.48-13.61 3.63.02-3.37 10.27h4.29l-1.1 3.32z"/><path d="M168.66 374.17h-3.6l10.82-33.45a5.5 5.5 0 015.24-3.7c2.01-.02 3.11-.02 5.13 0 4.38.01 6.06 1.73 7.08 4.56.49 1.36.53 3.28.13 4.55l-2.35 7.13a5.4 5.4 0 01-4.8 3.61s3.03-9.15 3.97-12.14a3.39 3.39 0 00-3.4-4.42c-2.01-.02-3.27 0-5.28 0a2.68 2.68 0 00-2.54 1.81l-10.4 32.05zM182.7 364.59h7.92l-4.48 13.6-3.63-.02 3.37-10.27h-4.29l1.1-3.31z"/><path d="M200.34 347.25h3.6l-10.82 33.46a5.5 5.5 0 01-5.23 3.7h-5.14c-4.37-.02-6.06-1.74-7.08-4.57a7.94 7.94 0 01-.12-4.55c1.04-3.2 1.28-3.94 2.34-7.13a5.4 5.4 0 014.8-3.6s-3.03 9.15-3.97 12.14a3.39 3.39 0 003.4 4.41c2.01.02 3.27.01 5.28 0a2.68 2.68 0 002.54-1.8l10.4-32.06zM215.07 377.73h-7.92l4.48-13.61 3.63.02-3.37 10.28h4.29l-1.1 3.31z"/><path d="M197.43 395.06h-3.6l10.82-33.45a5.5 5.5 0 015.23-3.7c2.02-.02 3.12-.01 5.14 0 4.38.01 6.06 1.73 7.08 4.57.49 1.36.53 3.27.13 4.55l-2.35 7.12a5.4 5.4 0 01-4.8 3.61s3.03-9.15 3.97-12.14a3.39 3.39 0 00-3.4-4.41c-2.01-.02-3.27-.01-5.28 0a2.68 2.68 0 00-2.54 1.8l-10.4 32.05zM211.47 385.48h7.92l-4.48 13.61-3.63-.02 3.37-10.28h-4.29l1.1-3.31z"/><path d="M229.1 368.15h3.61l-10.82 33.45a5.5 5.5 0 01-5.23 3.7c-2.02.02-3.12.01-5.14 0-4.38-.01-6.06-1.73-7.08-4.56a7.94 7.94 0 01-.13-4.56l2.35-7.12a5.4 5.4 0 014.8-3.61s-3.03 9.15-3.97 12.14a3.39 3.39 0 003.4 4.41c2.01.03 3.27.01 5.28 0a2.68 2.68 0 002.54-1.8l10.4-32.05zM307.86 298.6h-3.6l10.8-33.45a5.5 5.5 0 015.23-3.7c2.01-.02 3.11-.02 5.13 0 4.37.01 6.06 1.73 7.08 4.56.49 1.36.53 3.28.13 4.55l-2.34 7.13a5.4 5.4 0 01-4.8 3.61s3.02-9.15 3.96-12.14a3.39 3.39 0 00-3.4-4.42c-2-.02-3.26 0-5.27 0a2.68 2.68 0 00-2.54 1.81l-10.38 32.05zM321.88 289.02h7.93l-4.48 13.6-3.63-.02 3.37-10.27h-4.3l1.11-3.31z"/><path d="M339.52 271.68h3.6l-10.82 33.46a5.5 5.5 0 01-5.23 3.7h-5.13c-4.38-.02-6.06-1.74-7.08-4.57a7.93 7.93 0 01-.13-4.55l2.34-7.13a5.4 5.4 0 014.81-3.6s-3.03 9.15-3.98 12.14a3.39 3.39 0 003.4 4.4c2.02.03 3.28.02 5.28 0a2.68 2.68 0 002.55-1.8l10.4-32.05zM31.55 222.06h-3.6l10.8-33.45a5.5 5.5 0 015.22-3.7h5.14c4.37.02 6.05 1.74 7.07 4.57.5 1.36.53 3.28.13 4.55-1.04 3.2-1.28 3.93-2.34 7.12a5.4 5.4 0 01-4.8 3.61s3.03-9.15 3.97-12.14a3.39 3.39 0 00-3.4-4.41c-2.01-.02-3.27-.01-5.28 0a2.68 2.68 0 00-2.54 1.8l-10.37 32.06zM263.43 18.45h7.93l-4.48 13.6-3.63-.02 3.37-10.27h-4.3l1.11-3.31z"/><path d="M281.07 1.11h3.6l-10.82 33.46a5.5 5.5 0 01-5.23 3.7h-5.13c-4.38-.02-6.06-1.74-7.08-4.57a7.93 7.93 0 01-.13-4.55c1.04-3.2 1.3-3.94 2.35-7.13a5.4 5.4 0 014.8-3.6s-3.03 9.15-3.98 12.13a3.39 3.39 0 003.4 4.42c2.02.02 3.28 0 5.28 0a2.68 2.68 0 002.55-1.8l10.4-32.06zM187.03 128.2h-7.92l4.48-13.61 3.63.02-3.37 10.28h4.29l-1.1 3.3z"/><path d="M169.4 145.53h-3.61l10.82-33.45a5.5 5.5 0 015.23-3.7c2.02-.02 3.12-.02 5.14 0 4.38.01 6.06 1.73 7.08 4.56.49 1.37.53 3.28.13 4.55l-2.35 7.13a5.4 5.4 0 01-4.8 3.61s3.03-9.15 3.97-12.14a3.39 3.39 0 00-3.4-4.41c-2.01-.03-3.27-.01-5.28 0a2.68 2.68 0 00-2.54 1.8l-10.4 32.05zM183.43 135.95h7.92l-4.48 13.6-3.63-.02 3.37-10.27h-4.29l1.1-3.31z"/><path d="M201.07 118.61h3.6l-10.82 33.46a5.5 5.5 0 01-5.23 3.7h-5.14c-4.38-.02-6.06-1.74-7.08-4.57a7.93 7.93 0 01-.13-4.55l2.35-7.12a5.4 5.4 0 014.8-3.61s-3.03 9.15-3.97 12.14a3.39 3.39 0 003.4 4.41c2.01.02 3.27.01 5.28 0a2.68 2.68 0 002.54-1.8l10.4-32.05zM106.94 244.81H99l4.48-13.6 3.63.02-3.37 10.27h4.3l-1.11 3.31z"/><path d="M89.3 262.15h-3.6l10.82-33.46a5.5 5.5 0 015.23-3.7h5.13c4.38.02 6.06 1.74 7.08 4.57.49 1.36.53 3.28.13 4.55l-2.35 7.13a5.4 5.4 0 01-4.8 3.6s3.03-9.15 3.97-12.14a3.39 3.39 0 00-3.4-4.4c-2-.03-3.27-.02-5.28 0a2.68 2.68 0 00-2.54 1.8l-10.4 32.05zM103.33 252.56h7.92l-4.47 13.61-3.64-.02 3.37-10.27h-4.29l1.1-3.32z"/><path d="M120.97 235.23h3.6l-10.82 33.46a5.5 5.5 0 01-5.23 3.7h-5.14c-4.37-.02-6.06-1.74-7.07-4.57a7.94 7.94 0 01-.13-4.55l2.34-7.13a5.4 5.4 0 014.8-3.6s-3.02 9.14-3.97 12.13a3.39 3.39 0 003.4 4.41c2.01.03 3.27.02 5.28 0a2.68 2.68 0 002.54-1.8l10.4-32.05zM215.82 149.02h-7.92l4.47-13.61 3.64.02-3.37 10.28h4.29l-1.1 3.3z"/><path d="M198.18 166.35h-3.6l10.82-33.45a5.5 5.5 0 015.23-3.7c2.02-.02 3.12-.02 5.14 0 4.37.01 6.06 1.73 7.07 4.56.5 1.37.54 3.28.13 4.56-1.04 3.2-1.29 3.93-2.34 7.12a5.4 5.4 0 01-4.8 3.61s3.02-9.15 3.97-12.14a3.39 3.39 0 00-3.4-4.41c-2.01-.03-3.27-.01-5.28 0a2.68 2.68 0 00-2.54 1.8l-10.4 32.05zM212.21 156.77h7.93l-4.48 13.6-3.63-.02 3.37-10.27h-4.3l1.11-3.31z"/><path d="M229.86 139.44h3.6l-10.83 33.45a5.5 5.5 0 01-5.22 3.7h-5.14c-4.38-.02-6.06-1.74-7.08-4.57a7.93 7.93 0 01-.13-4.55c1.04-3.2 1.3-3.93 2.35-7.12a5.4 5.4 0 014.8-3.61s-3.03 9.15-3.97 12.14a3.39 3.39 0 003.4 4.41c2 .02 3.27.01 5.28 0a2.68 2.68 0 002.54-1.8l10.4-32.06zM135.72 265.63h-7.92l4.48-13.6 3.63.02-3.37 10.27h4.29l-1.1 3.31z"/><path d="M118.08 282.96h-3.6l10.82-33.45a5.5 5.5 0 015.23-3.7h5.14c4.38.02 6.06 1.73 7.08 4.57.49 1.36.53 3.28.13 4.55l-2.35 7.13a5.4 5.4 0 01-4.8 3.6s3.03-9.15 3.97-12.14a3.39 3.39 0 00-3.4-4.41c-2.01-.02-3.27-.01-5.28 0a2.68 2.68 0 00-2.54 1.8l-10.4 32.05zM132.12 273.38h7.92L135.56 287l-3.63-.02 3.37-10.28h-4.29l1.1-3.3z"/><path d="M149.76 256.05h3.6l-10.82 33.45a5.5 5.5 0 01-5.23 3.7c-2.02.02-3.12.02-5.14 0-4.37-.01-6.06-1.73-7.08-4.56a7.94 7.94 0 01-.13-4.55l2.35-7.13a5.4 5.4 0 014.8-3.61s-3.03 9.15-3.97 12.14a3.39 3.39 0 003.4 4.41c2.01.03 3.27.02 5.28 0a2.68 2.68 0 002.54-1.8l10.4-32.05zM246.12 169.17h-7.92l4.47-13.61 3.64.02-3.38 10.28h4.3l-1.1 3.3z"/><path d="M228.48 186.5h-3.6l10.82-33.45a5.5 5.5 0 015.23-3.7c2.02-.02 3.12-.01 5.14 0 4.37.01 6.06 1.73 7.08 4.56.48 1.37.53 3.28.12 4.56-1.04 3.2-1.29 3.93-2.34 7.12a5.4 5.4 0 01-4.8 3.61s3.02-9.15 3.97-12.14a3.39 3.39 0 00-3.4-4.41c-2.01-.03-3.27-.01-5.28 0a2.68 2.68 0 00-2.54 1.8l-10.4 32.05zM242.51 176.92h7.93l-4.48 13.6-3.63-.02 3.37-10.27h-4.3l1.11-3.31z"/><path d="M260.15 159.59h3.6l-10.82 33.45a5.5 5.5 0 01-5.23 3.7c-2.01.02-3.11.01-5.13 0-4.38-.01-6.06-1.73-7.08-4.57a7.94 7.94 0 01-.13-4.55c1.04-3.2 1.3-3.93 2.35-7.12a5.4 5.4 0 014.8-3.61s-3.03 9.15-3.97 12.14a3.39 3.39 0 003.4 4.41c2 .03 3.27.01 5.28 0a2.68 2.68 0 002.54-1.8l10.4-32.05zM354.82 73.23h-7.92l4.48-13.61 3.63.02-3.37 10.27h4.29l-1.1 3.32z"/><path d="M337.18 90.56h-3.6L344.4 57.1a5.5 5.5 0 015.23-3.7h5.14c4.38.02 6.06 1.74 7.08 4.57.49 1.36.53 3.28.13 4.55l-2.35 7.13a5.4 5.4 0 01-4.8 3.6s3.03-9.14 3.97-12.13a3.39 3.39 0 00-3.4-4.42c-2.01-.02-3.27 0-5.28 0a2.68 2.68 0 00-2.54 1.8l-10.4 32.06zM351.21 80.98h7.93l-4.48 13.6-3.63-.02 3.37-10.27h-4.29l1.1-3.31z"/><path d="M368.86 63.64h3.6L361.64 97.1a5.5 5.5 0 01-5.23 3.7h-5.14c-4.38-.02-6.06-1.74-7.08-4.57a7.93 7.93 0 01-.13-4.55l2.35-7.13a5.4 5.4 0 014.8-3.6s-3.03 9.14-3.97 12.13a3.39 3.39 0 003.4 4.42c2.01.02 3.27 0 5.28 0a2.68 2.68 0 002.54-1.8l10.4-32.06zM194.78 74.56h-7.93l4.48-13.61 3.63.02-3.37 10.28h4.29l-1.1 3.3z"/><path d="M177.13 91.9h-3.6l10.82-33.46a5.5 5.5 0 015.24-3.7c2.01-.02 3.11-.02 5.13 0 4.38.01 6.06 1.73 7.08 4.56.49 1.37.53 3.28.13 4.56l-2.35 7.12a5.4 5.4 0 01-4.8 3.61s3.03-9.15 3.97-12.14a3.39 3.39 0 00-3.4-4.41c-2.01-.03-3.27-.01-5.28 0a2.68 2.68 0 00-2.54 1.8l-10.4 32.05zM191.16 82.3h7.93l-4.48 13.62-3.63-.03 3.37-10.27h-4.29l1.1-3.31z"/><path d="M208.8 64.98h3.61L201.6 98.43a5.5 5.5 0 01-5.23 3.7c-2.02.02-3.12.01-5.14 0-4.37-.02-6.06-1.73-7.08-4.57a7.94 7.94 0 01-.12-4.55c1.04-3.2 1.28-3.93 2.34-7.12a5.4 5.4 0 014.8-3.61s-3.03 9.15-3.97 12.14a3.39 3.39 0 003.4 4.41c2.01.02 3.27.01 5.28 0a2.68 2.68 0 002.54-1.8l10.4-32.05zM114.68 191.17h-7.93l4.48-13.6 3.63.02-3.37 10.27h4.3l-1.11 3.31z"/><path d="M97.03 208.5h-3.6l10.83-33.45a5.5 5.5 0 015.23-3.7h5.13c4.38.02 6.06 1.74 7.08 4.57.49 1.36.53 3.28.13 4.55-1.04 3.2-1.3 3.94-2.35 7.13a5.4 5.4 0 01-4.8 3.6s3.03-9.15 3.97-12.14a3.39 3.39 0 00-3.4-4.4c-2-.03-3.27-.02-5.28 0a2.68 2.68 0 00-2.54 1.8l-10.4 32.05zM111.07 198.92h7.92l-4.47 13.61-3.64-.02 3.37-10.27h-4.29l1.1-3.32z"/><path d="M128.71 181.59h3.6l-10.82 33.45a5.5 5.5 0 01-5.23 3.7c-2.02.02-3.12.02-5.14 0-4.37-.01-6.06-1.73-7.07-4.56a7.94 7.94 0 01-.13-4.55l2.34-7.13a5.4 5.4 0 014.8-3.6s-3.02 9.14-3.97 12.13a3.39 3.39 0 003.4 4.42c2.01.02 3.27 0 5.28 0a2.68 2.68 0 002.55-1.81l10.4-32.05zM48.15 297.98h3.6l-10.8 33.46a5.5 5.5 0 01-5.22 3.7H30.6c-4.37-.02-6.06-1.74-7.08-4.57a7.94 7.94 0 01-.13-4.55l2.34-7.13a5.4 5.4 0 014.8-3.6s-3.02 9.15-3.97 12.14a3.39 3.39 0 003.4 4.4c2.02.03 3.27.02 5.28 0a2.68 2.68 0 002.54-1.8l10.37-32.05zM223.45 96.12h-7.92L220 82.5l3.64.02-3.37 10.28h4.29l-1.1 3.3z"/><path d="M205.8 113.45h-3.6L213.04 80a5.5 5.5 0 015.23-3.7c2.02-.02 3.12-.02 5.14 0 4.37.01 6.06 1.73 7.07 4.56.5 1.36.54 3.28.13 4.55-1.04 3.2-1.28 3.94-2.34 7.13a5.4 5.4 0 01-4.8 3.61s3.03-9.15 3.97-12.14a3.39 3.39 0 00-3.4-4.41c-2.01-.03-3.27-.01-5.28 0a2.68 2.68 0 00-2.54 1.8l-10.4 32.05zM219.84 103.87h7.93l-4.48 13.6-3.63-.02 3.37-10.27h-4.3l1.11-3.31z"/><path d="M237.49 86.54h3.6l-10.83 33.45a5.5 5.5 0 01-5.22 3.7c-2.02.02-3.12.01-5.14 0-4.38-.02-6.06-1.73-7.08-4.57a7.94 7.94 0 01-.13-4.55l2.35-7.12a5.4 5.4 0 014.8-3.61s-3.03 9.15-3.97 12.14a3.39 3.39 0 003.4 4.41c2.01.02 3.27.01 5.28 0a2.68 2.68 0 002.54-1.8l10.4-32.05zM143.35 212.73h-7.92l4.48-13.6 3.63.02-3.37 10.27h4.29l-1.1 3.31z"/><path d="M125.71 230.07h-3.6l10.82-33.46a5.5 5.5 0 015.23-3.7h5.14c4.38.02 6.06 1.74 7.08 4.57.49 1.36.53 3.28.13 4.55l-2.35 7.13a5.4 5.4 0 01-4.8 3.6s3.03-9.15 3.97-12.14a3.39 3.39 0 00-3.4-4.4c-2.01-.03-3.27-.02-5.28 0a2.68 2.68 0 00-2.54 1.8l-10.4 32.05zM139.75 220.48h7.92l-4.48 13.61-3.63-.02 3.37-10.27h-4.29l1.1-3.32z"/><path d="M157.39 203.15h3.6l-10.82 33.45a5.5 5.5 0 01-5.23 3.7c-2.02.02-3.12.02-5.14 0-4.38-.01-6.06-1.73-7.08-4.56a7.93 7.93 0 01-.13-4.55l2.35-7.13a5.4 5.4 0 014.8-3.6s-3.03 9.14-3.97 12.13a3.39 3.39 0 003.4 4.41c2.01.03 3.27.02 5.28 0a2.68 2.68 0 002.54-1.8l10.4-32.05zM62.93 328.46H55l4.48-13.61 3.63.02-3.37 10.28h4.29l-1.1 3.3z"/><path d="M45.28 345.8h-3.6l10.82-33.46a5.5 5.5 0 015.23-3.7c2.02-.02 3.12-.02 5.14 0 4.38.01 6.06 1.73 7.08 4.56.49 1.37.53 3.28.13 4.56l-2.35 7.12a5.4 5.4 0 01-4.8 3.61s3.03-9.15 3.97-12.14a3.39 3.39 0 00-3.4-4.41c-2.01-.03-3.27-.01-5.28 0a2.68 2.68 0 00-2.54 1.8l-10.4 32.05zM59.32 336.2h7.92l-4.48 13.62-3.63-.02 3.37-10.28h-4.29l1.1-3.31z"/><path d="M76.96 318.88h3.6l-10.82 33.45a5.5 5.5 0 01-5.23 3.7c-2.02.02-3.12.01-5.14 0-4.37-.01-6.06-1.73-7.08-4.57a7.94 7.94 0 01-.12-4.55c1.04-3.2 1.28-3.93 2.34-7.12a5.4 5.4 0 014.8-3.61s-3.03 9.15-3.97 12.14a3.39 3.39 0 003.4 4.41c2.01.02 3.27.01 5.28 0a2.68 2.68 0 002.54-1.8l10.4-32.05zM252.24 116.94h-7.92l4.47-13.61 3.64.02-3.38 10.27h4.3l-1.1 3.32z"/><path d="M234.6 134.27H231l10.82-33.46a5.5 5.5 0 015.23-3.7h5.14c4.37.02 6.06 1.74 7.07 4.57.5 1.36.53 3.28.13 4.55l-2.34 7.13a5.4 5.4 0 01-4.81 3.6s3.03-9.14 3.98-12.13a3.39 3.39 0 00-3.4-4.41c-2.01-.03-3.27-.02-5.28 0a2.68 2.68 0 00-2.54 1.8l-10.4 32.05zM248.63 124.69h7.93l-4.48 13.6-3.63-.02 3.37-10.27h-4.3l1.11-3.31z"/><path d="M266.27 107.35h3.6l-10.82 33.46a5.5 5.5 0 01-5.23 3.7h-5.13c-4.38-.02-6.06-1.74-7.08-4.57a7.93 7.93 0 01-.13-4.55l2.34-7.13a5.4 5.4 0 014.81-3.6s-3.03 9.15-3.97 12.14a3.39 3.39 0 003.4 4.4c2 .03 3.27.02 5.28 0a2.68 2.68 0 002.54-1.8l10.4-32.05zM343.3 38.33h-3.6l10.8-33.46a5.5 5.5 0 015.22-3.7h5.13c4.38.02 6.06 1.74 7.08 4.57.49 1.36.53 3.28.13 4.55l-2.34 7.13a5.4 5.4 0 01-4.8 3.6s3.02-9.15 3.97-12.14a3.39 3.39 0 00-3.4-4.4c-2.01-.03-3.27-.02-5.28 0a2.68 2.68 0 00-2.54 1.8L343.3 38.33zM357.31 28.74h7.93l-4.48 13.61-3.63-.02 3.37-10.27h-4.29l1.1-3.32z"/><path d="M374.96 11.41h3.6l-10.82 33.46a5.5 5.5 0 01-5.23 3.7h-5.14c-4.38-.02-6.06-1.74-7.08-4.57a7.93 7.93 0 01-.13-4.55l2.35-7.13a5.4 5.4 0 014.8-3.6s-3.03 9.14-3.97 12.13a3.39 3.39 0 003.4 4.42c2.01.02 3.27 0 5.28 0a2.68 2.68 0 002.54-1.81l10.4-32.05zM172.13 233.55h-7.93l4.48-13.6 3.63.02-3.37 10.27h4.29l-1.1 3.31z"/><path d="M154.48 250.88h-3.6l10.82-33.45a5.5 5.5 0 015.23-3.7h5.14c4.38.02 6.06 1.74 7.08 4.57.49 1.36.53 3.28.13 4.55l-2.35 7.13a5.4 5.4 0 01-4.8 3.6s3.03-9.15 3.97-12.14a3.39 3.39 0 00-3.4-4.41c-2.01-.02-3.27-.01-5.28 0a2.68 2.68 0 00-2.54 1.8l-10.4 32.05zM168.51 241.3h7.93l-4.48 13.61-3.63-.02 3.37-10.27h-4.29l1.1-3.32z"/><path d="M186.16 223.97h3.6l-10.82 33.45a5.5 5.5 0 01-5.23 3.7c-2.02.02-3.12.02-5.14 0-4.38-.01-6.06-1.73-7.08-4.56a7.93 7.93 0 01-.13-4.55l2.35-7.13a5.4 5.4 0 014.8-3.61s-3.03 9.15-3.97 12.14a3.39 3.39 0 003.4 4.41c2.01.03 3.27.01 5.28 0a2.68 2.68 0 002.54-1.8l10.4-32.05zM282.54 137.09h-7.92l4.47-13.61 3.64.02-3.38 10.28h4.3l-1.1 3.3z"/><path d="M264.9 154.42h-3.6l10.82-33.45a5.5 5.5 0 015.23-3.7c2.02-.02 3.11-.02 5.14 0 4.37.01 6.05 1.73 7.07 4.56.5 1.36.53 3.28.13 4.56-1.04 3.2-1.29 3.93-2.34 7.12a5.4 5.4 0 01-4.81 3.61s3.03-9.15 3.98-12.14a3.39 3.39 0 00-3.4-4.41c-2.01-.03-3.27-.01-5.28 0a2.68 2.68 0 00-2.55 1.8l-10.4 32.05zM278.93 144.84h7.93l-4.48 13.6-3.63-.01 3.37-10.28h-4.3l1.11-3.31z"/><path d="M296.57 127.5h3.6l-10.82 33.46a5.5 5.5 0 01-5.23 3.7c-2.02.02-3.11.01-5.13 0-4.38-.01-6.06-1.73-7.08-4.57a7.94 7.94 0 01-.13-4.55c1.04-3.2 1.29-3.93 2.35-7.12a5.4 5.4 0 014.8-3.61s-3.03 9.15-3.98 12.14a3.39 3.39 0 003.4 4.41c2.02.02 3.27.01 5.28 0a2.68 2.68 0 002.55-1.8l10.4-32.05zM391.24 41.14h-7.92l4.48-13.6 3.63.02-3.37 10.27h4.29l-1.1 3.31z"/><path d="M373.6 58.48H370l10.82-33.46a5.5 5.5 0 015.23-3.7h5.14c4.37.02 6.06 1.74 7.07 4.57.5 1.36.54 3.28.13 4.55l-2.34 7.13a5.4 5.4 0 01-4.8 3.6s3.02-9.15 3.97-12.13a3.39 3.39 0 00-3.4-4.42c-2.01-.02-3.27 0-5.28 0a2.68 2.68 0 00-2.54 1.8l-10.4 32.06zM387.63 48.9h7.93l-4.48 13.6-3.63-.02 3.37-10.27h-4.3l1.11-3.32z"/><path d="M405.27 31.56h3.6l-10.82 33.46a5.5 5.5 0 01-5.23 3.7h-5.13c-4.38-.02-6.06-1.74-7.08-4.57a7.94 7.94 0 01-.13-4.55c1.04-3.2 1.3-3.94 2.35-7.13a5.4 5.4 0 014.8-3.6S384.6 58 383.66 61a3.39 3.39 0 003.4 4.42c2 .02 3.27 0 5.28 0a2.68 2.68 0 002.54-1.8l10.4-32.06zM122.23 138.13h-7.92l4.48-13.61 3.63.02-3.37 10.27h4.29l-1.1 3.32z"/><path d="M104.59 155.46h-3.6L111.8 122a5.5 5.5 0 015.23-3.7h5.14c4.38.02 6.06 1.74 7.08 4.57.49 1.36.53 3.28.13 4.55l-2.35 7.13a5.4 5.4 0 01-4.8 3.6s3.03-9.14 3.97-12.13a3.39 3.39 0 00-3.4-4.42c-2.01-.02-3.27 0-5.28 0a2.68 2.68 0 00-2.54 1.81l-10.4 32.05zM118.62 145.88h7.93l-4.48 13.6-3.63-.02 3.37-10.27h-4.29l1.1-3.31z"/><path d="M136.27 128.54h3.6L129.04 162a5.5 5.5 0 01-5.22 3.7h-5.14c-4.38-.02-6.06-1.74-7.08-4.57a7.94 7.94 0 01-.13-4.55l2.35-7.13a5.4 5.4 0 014.8-3.6s-3.03 9.15-3.97 12.14a3.39 3.39 0 003.4 4.4c2.01.03 3.27.02 5.28 0a2.68 2.68 0 002.54-1.8l10.4-32.05zM24.5 272.07h-3.6l10.8-33.45a5.5 5.5 0 015.23-3.7h5.14c4.37.02 6.05 1.73 7.07 4.57.5 1.36.53 3.27.13 4.55-1.04 3.2-1.28 3.93-2.34 7.12a5.4 5.4 0 01-4.8 3.61s3.03-9.15 3.97-12.14a3.39 3.39 0 00-3.4-4.41c-2.01-.02-3.27-.01-5.28 0a2.68 2.68 0 00-2.54 1.8l-10.37 32.05zM56.13 245.16h3.6l-10.8 33.45a5.5 5.5 0 01-5.22 3.7c-2.02.02-3.11.02-5.13 0-4.37-.01-6.06-1.73-7.08-4.56a7.94 7.94 0 01-.13-4.56c1.04-3.2 1.29-3.93 2.34-7.12a5.4 5.4 0 014.8-3.61s-3.02 9.15-3.97 12.14a3.39 3.39 0 003.4 4.41c2.02.03 3.27.01 5.28 0a2.68 2.68 0 002.54-1.8l10.37-32.05zM147.32 167.44h7.92l-4.47 13.6-3.63-.02 3.37-10.27h-4.3l1.11-3.31z"/><path d="M164.96 150.1h3.6l-10.82 33.46a5.5 5.5 0 01-5.23 3.7h-5.13c-4.38-.02-6.06-1.74-7.08-4.57a7.93 7.93 0 01-.13-4.55l2.34-7.13a5.4 5.4 0 014.81-3.6s-3.03 9.15-3.98 12.14a3.39 3.39 0 003.4 4.4c2.02.03 3.27.02 5.28 0a2.68 2.68 0 002.55-1.8l10.4-32.05zM259.61 63.67h-7.92l4.48-13.61 3.63.02-3.37 10.28h4.29l-1.1 3.3z"/><path d="M241.97 81h-3.6l10.82-33.45a5.5 5.5 0 015.23-3.7c2.02-.02 3.12-.02 5.14 0 4.37.01 6.06 1.73 7.08 4.56.49 1.36.53 3.28.12 4.55-1.04 3.2-1.28 3.94-2.34 7.13a5.4 5.4 0 01-4.8 3.61s3.02-9.15 3.97-12.14a3.39 3.39 0 00-3.4-4.41c-2.01-.03-3.27-.01-5.28 0a2.68 2.68 0 00-2.54 1.8L241.97 81zM256 71.42h7.93l-4.48 13.6-3.63-.02 3.37-10.27h-4.3l1.11-3.31z"/><path d="M273.65 54.08h3.6l-10.83 33.46a5.5 5.5 0 01-5.23 3.7h-5.13c-4.38-.02-6.06-1.74-7.08-4.57a7.94 7.94 0 01-.13-4.55L251.2 75a5.4 5.4 0 014.8-3.61s-3.03 9.15-3.97 12.14a3.39 3.39 0 003.4 4.41c2.01.02 3.27.01 5.28 0a2.68 2.68 0 002.54-1.8l10.4-32.06zM70.81 276.3H62.9l4.48-13.6 3.63.01L67.63 273h4.29l-1.1 3.31z"/><path d="M53.17 293.63h-3.6l10.82-33.45a5.5 5.5 0 015.23-3.7c2.02-.02 3.12-.01 5.14 0 4.37.01 6.06 1.73 7.08 4.57.49 1.36.53 3.27.12 4.55-1.04 3.2-1.29 3.93-2.34 7.12a5.4 5.4 0 01-4.8 3.61s3.03-9.15 3.97-12.14a3.39 3.39 0 00-3.4-4.41c-2.01-.02-3.27-.01-5.28 0a2.68 2.68 0 00-2.54 1.8l-10.4 32.05zM67.2 284.05h7.93l-4.48 13.61-3.63-.02 3.37-10.28H66.1l1.1-3.3z"/><path d="M84.85 266.72h3.6l-10.83 33.45a5.5 5.5 0 01-5.22 3.7c-2.02.02-3.12.01-5.14 0-4.38-.01-6.06-1.73-7.08-4.56a7.94 7.94 0 01-.13-4.56l2.35-7.12a5.4 5.4 0 014.8-3.61s-3.03 9.15-3.97 12.14a3.39 3.39 0 003.4 4.41c2.01.03 3.27.01 5.28 0a2.68 2.68 0 002.54-1.8l10.4-32.05zM179.7 180.5h-7.92l4.47-13.6 3.63.02-3.37 10.27h4.3l-1.11 3.31z"/><path d="M162.06 197.84h-3.6l10.82-33.46a5.5 5.5 0 015.23-3.7h5.14c4.37.02 6.05 1.74 7.07 4.57.5 1.36.53 3.28.13 4.55l-2.34 7.13a5.4 5.4 0 01-4.81 3.6s3.03-9.15 3.98-12.13a3.39 3.39 0 00-3.4-4.42c-2.02-.02-3.28 0-5.28 0a2.68 2.68 0 00-2.55 1.8l-10.4 32.06zM176.09 188.25H184l-4.47 13.62-3.63-.03 3.37-10.27h-4.3l1.1-3.31z"/><path d="M193.73 170.92h3.6l-10.82 33.46a5.5 5.5 0 01-5.23 3.7h-5.14c-4.37-.02-6.05-1.74-7.07-4.57a7.94 7.94 0 01-.13-4.55l2.34-7.13a5.4 5.4 0 014.81-3.6s-3.03 9.15-3.98 12.13a3.39 3.39 0 003.4 4.42c2.02.02 3.27 0 5.28 0a2.68 2.68 0 002.55-1.8l10.4-32.06zM288.38 84.56h-7.92l4.48-13.6 3.63.01-3.37 10.28h4.29l-1.1 3.31z"/><path d="M270.74 101.9h-3.6l10.82-33.46a5.5 5.5 0 015.23-3.7c2.02-.02 3.12-.01 5.14 0 4.37.01 6.06 1.73 7.07 4.57.5 1.36.54 3.27.13 4.55-1.04 3.2-1.29 3.93-2.34 7.12a5.4 5.4 0 01-4.8 3.61s3.03-9.15 3.97-12.14a3.39 3.39 0 00-3.4-4.41c-2.01-.03-3.27-.01-5.28 0a2.68 2.68 0 00-2.54 1.8l-10.4 32.05zM284.77 92.31h7.93l-4.48 13.61-3.63-.02 3.37-10.28h-4.3l1.11-3.3z"/><path d="M302.42 74.98h3.6l-10.83 33.45a5.5 5.5 0 01-5.23 3.7c-2.01.02-3.11.02-5.13 0-4.38-.01-6.06-1.73-7.08-4.56a7.93 7.93 0 01-.13-4.55l2.35-7.13a5.4 5.4 0 014.8-3.61s-3.03 9.15-3.97 12.14a3.39 3.39 0 003.4 4.41c2 .03 3.27.01 5.28 0a2.68 2.68 0 002.54-1.8l10.4-32.05zM99.58 297.12h-7.92l4.48-13.61 3.63.02-3.37 10.28h4.29l-1.1 3.31z"/><path d="M81.94 314.45h-3.6L89.16 281a5.5 5.5 0 015.23-3.7c2.02-.02 3.12-.01 5.14 0 4.37.01 6.06 1.73 7.08 4.56.48 1.37.53 3.28.12 4.56-1.04 3.2-1.29 3.93-2.34 7.12a5.4 5.4 0 01-4.8 3.61s3.02-9.15 3.97-12.14a3.39 3.39 0 00-3.4-4.41c-2.01-.03-3.27-.01-5.28 0a2.68 2.68 0 00-2.54 1.8l-10.4 32.05zM95.97 304.87h7.93l-4.48 13.6-3.63-.01 3.37-10.28h-4.3l1.11-3.31z"/><path d="M113.62 287.54h3.6l-10.83 33.45a5.5 5.5 0 01-5.22 3.7c-2.02.02-3.12.01-5.14 0-4.38-.01-6.06-1.73-7.08-4.57a7.94 7.94 0 01-.13-4.55l2.35-7.12a5.4 5.4 0 014.8-3.61s-3.03 9.15-3.97 12.14a3.39 3.39 0 003.4 4.41c2 .03 3.27.01 5.28 0a2.68 2.68 0 002.54-1.8l10.4-32.05zM210 200.66h-7.93l4.48-13.61 3.63.02-3.37 10.27h4.3l-1.11 3.32z"/><path d="M192.35 217.99h-3.6l10.83-33.46a5.5 5.5 0 015.23-3.7h5.13c4.38.02 6.06 1.74 7.08 4.57.5 1.36.53 3.28.13 4.55l-2.34 7.13a5.4 5.4 0 01-4.81 3.6s3.03-9.14 3.98-12.13a3.39 3.39 0 00-3.4-4.42c-2.02-.02-3.28 0-5.28 0a2.68 2.68 0 00-2.55 1.81L192.35 218zM206.39 208.4h7.92l-4.47 13.62-3.63-.03 3.37-10.27h-4.3l1.1-3.31z"/><path d="M224.03 191.07h3.6l-10.82 33.46a5.5 5.5 0 01-5.23 3.7h-5.14c-4.37-.02-6.05-1.74-7.07-4.57a7.94 7.94 0 01-.13-4.55l2.34-7.13a5.4 5.4 0 014.81-3.6s-3.03 9.15-3.98 12.14a3.39 3.39 0 003.4 4.4c2.01.03 3.27.02 5.28 0a2.68 2.68 0 002.55-1.8l10.4-32.05zM318.7 104.71h-7.92l4.47-13.6 3.63.02-3.37 10.27h4.3l-1.1 3.31z"/><path d="M301.06 122.05h-3.6l10.82-33.46a5.5 5.5 0 015.23-3.7h5.14c4.37.02 6.06 1.74 7.07 4.57.5 1.36.53 3.28.13 4.55l-2.34 7.13a5.4 5.4 0 01-4.81 3.6s3.03-9.15 3.98-12.14a3.39 3.39 0 00-3.4-4.4c-2.01-.03-3.27-.02-5.28-.01a2.68 2.68 0 00-2.55 1.8l-10.4 32.06zM315.1 112.46H323l-4.47 13.61-3.63-.02 3.37-10.27h-4.3l1.11-3.32z"/><path d="M332.73 95.13h3.6l-10.82 33.45a5.5 5.5 0 01-5.23 3.7c-2.02.02-3.11.02-5.13 0-4.38-.01-6.06-1.73-7.08-4.56a7.94 7.94 0 01-.13-4.55c1.04-3.2 1.29-3.94 2.35-7.13a5.4 5.4 0 014.8-3.61s-3.03 9.15-3.98 12.14a3.39 3.39 0 003.4 4.42c2.02.02 3.28 0 5.28 0a2.68 2.68 0 002.55-1.81l10.4-32.05zM441.42 0h3.6l-10.8 33.45a5.5 5.5 0 01-5.22 3.7c-2.02.02-3.12.02-5.14 0-4.37-.01-6.05-1.73-7.07-4.56a7.94 7.94 0 01-.13-4.55c1.04-3.2 1.28-3.94 2.34-7.13a5.4 5.4 0 014.8-3.6s-3.03 9.14-3.97 12.13a3.39 3.39 0 003.4 4.42c2.01.02 3.27 0 5.28 0a2.68 2.68 0 002.54-1.81L441.42 0zM8.77 377.24h-3.6l10.8-33.45a5.5 5.5 0 015.23-3.7c2.01-.02 3.11-.01 5.13 0 4.37.01 6.06 1.73 7.08 4.57.49 1.36.53 3.27.13 4.55-1.04 3.2-1.29 3.93-2.34 7.12a5.4 5.4 0 01-4.8 3.61s3.02-9.15 3.96-12.14a3.39 3.39 0 00-3.4-4.41c-2-.02-3.27-.01-5.27 0a2.68 2.68 0 00-2.54 1.8L8.77 377.25zM40.4 350.33H44l-10.8 33.45a5.5 5.5 0 01-5.22 3.7c-2.02.02-3.12.01-5.14 0-4.37-.01-6.05-1.73-7.07-4.56a7.94 7.94 0 01-.13-4.56l2.33-7.12a5.4 5.4 0 014.8-3.61s-3.02 9.15-3.96 12.14a3.39 3.39 0 003.4 4.41c2.01.03 3.27.01 5.28 0a2.68 2.68 0 002.54-1.8l10.37-32.05zM55.48 378.43h-7.92l4.48-13.6 3.63.02-3.37 10.27h4.29l-1.1 3.31z"/><path d="M37.84 395.77h-3.6l10.82-33.46a5.5 5.5 0 015.23-3.7h5.14c4.37.02 6.06 1.74 7.08 4.57.48 1.36.53 3.28.12 4.55l-2.34 7.13a5.4 5.4 0 01-4.8 3.6s3.02-9.15 3.97-12.14a3.39 3.39 0 00-3.4-4.4c-2.01-.03-3.27-.02-5.28 0a2.68 2.68 0 00-2.54 1.8l-10.4 32.05zM51.87 386.18h7.93l-4.48 13.61-3.63-.02 3.37-10.27h-4.3l1.11-3.32z"/><path d="M69.52 368.85h3.6L62.29 402.3a5.5 5.5 0 01-5.23 3.7c-2.01.02-3.11.02-5.13 0-4.38-.01-6.06-1.73-7.08-4.56a7.94 7.94 0 01-.13-4.55l2.35-7.13a5.4 5.4 0 014.8-3.6s-3.03 9.14-3.97 12.13a3.39 3.39 0 003.4 4.41c2.01.03 3.27.02 5.28 0a2.68 2.68 0 002.54-1.8l10.4-32.05zM84.18 400h-7.93l4.48-13.62 3.63.03L81 396.68h4.3l-1.11 3.31z"/><path d="M66.53 417.33h-3.6l10.83-33.46a5.5 5.5 0 015.23-3.7h5.14c4.37.02 6.05 1.74 7.07 4.57.5 1.36.53 3.28.13 4.55l-2.34 7.13a5.4 5.4 0 01-4.81 3.6s3.03-9.15 3.98-12.14a3.39 3.39 0 00-3.4-4.41c-2.02-.02-3.28-.01-5.28 0a2.68 2.68 0 00-2.55 1.8l-10.4 32.06zM80.57 407.74h7.92l-4.47 13.61-3.63-.02 3.37-10.27h-4.3l1.1-3.32z"/><path d="M98.21 390.4h3.6L91 423.87a5.5 5.5 0 01-5.23 3.7c-2.02.02-3.11.02-5.14 0-4.37-.01-6.05-1.73-7.07-4.56a7.94 7.94 0 01-.13-4.55l2.34-7.13a5.4 5.4 0 014.81-3.61s-3.03 9.15-3.98 12.14a3.39 3.39 0 003.4 4.41c2.02.03 3.27.01 5.28 0a2.68 2.68 0 002.55-1.8l10.4-32.05zM112.95 420.81h-7.93l4.48-13.6 3.63.02-3.37 10.27h4.3l-1.11 3.31z"/><path d="M95.3 438.14h-3.6l10.83-33.45a5.5 5.5 0 015.23-3.7h5.13c4.38.01 6.06 1.74 7.08 4.57.49 1.36.53 3.27.13 4.55-1.04 3.2-1.29 3.93-2.34 7.12a5.4 5.4 0 01-4.81 3.61s3.03-9.15 3.98-12.14a3.39 3.39 0 00-3.4-4.41c-2.02-.02-3.28-.01-5.28 0a2.68 2.68 0 00-2.55 1.8l-10.4 32.05zM109.34 428.56h7.92l-4.47 13.61-3.64-.02 3.38-10.28h-4.3l1.1-3.3z"/><path d="M126.98 411.23h3.6l-10.82 33.45a5.5 5.5 0 01-5.23 3.7c-2.02.02-3.11.02-5.14 0-4.37-.01-6.05-1.73-7.07-4.56a7.94 7.94 0 01-.13-4.56c1.04-3.2 1.29-3.93 2.34-7.12a5.4 5.4 0 014.81-3.61s-3.03 9.15-3.98 12.14a3.39 3.39 0 003.4 4.41c2.02.03 3.27.01 5.28 0a2.68 2.68 0 002.55-1.8l10.4-32.05zM74.27 363.69h-3.6l10.8-33.46a5.5 5.5 0 015.23-3.7h5.13c4.37.02 6.06 1.74 7.08 4.57.49 1.36.53 3.28.13 4.55l-2.34 7.13a5.4 5.4 0 01-4.8 3.6s3.02-9.15 3.97-12.14a3.39 3.39 0 00-3.4-4.4c-2.02-.03-3.28-.02-5.28 0a2.68 2.68 0 00-2.54 1.8l-10.38 32.05zM88.3 354.1h7.92l-4.48 13.61-3.63-.02 3.37-10.27h-4.3l1.11-3.32z"/><path d="M105.94 336.77h3.6L98.7 370.22a5.5 5.5 0 01-5.23 3.7c-2.02.02-3.11.02-5.13 0-4.38-.01-6.06-1.73-7.08-4.56a7.94 7.94 0 01-.13-4.55c1.04-3.2 1.3-3.94 2.35-7.13a5.4 5.4 0 014.8-3.61s-3.03 9.15-3.98 12.14a3.39 3.39 0 003.4 4.42c2.02.02 3.28 0 5.28 0a2.68 2.68 0 002.55-1.81l10.4-32.05zM120.6 367.84h-7.93l4.48-13.61 3.63.02-3.37 10.28h4.3l-1.11 3.3z"/><path d="M102.95 385.17h-3.6l10.83-33.45a5.5 5.5 0 015.23-3.7c2.02-.02 3.11-.02 5.13 0 4.38.01 6.06 1.73 7.08 4.56.49 1.36.53 3.28.13 4.55l-2.35 7.13a5.4 5.4 0 01-4.8 3.61s3.03-9.15 3.98-12.14a3.39 3.39 0 00-3.4-4.41c-2.02-.03-3.28-.01-5.29 0a2.68 2.68 0 00-2.54 1.8l-10.4 32.05zM116.99 375.59h7.92l-4.47 13.6-3.64-.02 3.37-10.27h-4.29l1.1-3.31z"/><path d="M134.63 358.25h3.6l-10.82 33.46a5.5 5.5 0 01-5.23 3.7h-5.14c-4.37-.02-6.06-1.74-7.07-4.57a7.94 7.94 0 01-.13-4.55c1.04-3.2 1.29-3.93 2.34-7.12a5.4 5.4 0 014.8-3.61s-3.02 9.15-3.97 12.14a3.39 3.39 0 003.4 4.41c2.01.02 3.27.01 5.28 0a2.68 2.68 0 002.54-1.8l10.4-32.06zM40.17 483.56h-7.93l4.48-13.6 3.63.02-3.37 10.27h4.3l-1.11 3.31z"/><path d="M22.52 500.9h-3.6l10.83-33.46a5.5 5.5 0 015.23-3.7h5.13c4.38.02 6.06 1.74 7.08 4.57.49 1.36.53 3.28.13 4.55-1.04 3.2-1.3 3.94-2.35 7.13a5.4 5.4 0 01-4.8 3.6s3.03-9.15 3.97-12.14a3.39 3.39 0 00-3.4-4.4c-2-.03-3.27-.02-5.28 0a2.68 2.68 0 00-2.54 1.8l-10.4 32.05zM36.56 491.31h7.92l-4.47 13.61-3.64-.02 3.37-10.27h-4.29l1.1-3.32z"/><path d="M54.2 473.98h3.6l-10.82 33.46a5.5 5.5 0 01-5.23 3.7H36.6c-4.37-.02-6.06-1.74-7.07-4.57a7.94 7.94 0 01-.13-4.55l2.34-7.13a5.4 5.4 0 014.8-3.6s-3.02 9.14-3.97 12.13a3.39 3.39 0 003.4 4.42c2.01.02 3.27 0 5.28 0a2.68 2.68 0 002.54-1.81l10.4-32.05zM149.37 388.73h-7.93l4.48-13.6 3.63.01-3.37 10.28h4.3l-1.11 3.31z"/><path d="M131.72 406.06h-3.6l10.83-33.45a5.5 5.5 0 015.23-3.7c2.01-.02 3.11-.01 5.13 0 4.38.01 6.06 1.73 7.08 4.57.49 1.36.53 3.27.13 4.55l-2.35 7.12a5.4 5.4 0 01-4.8 3.61s3.03-9.15 3.97-12.14a3.39 3.39 0 00-3.4-4.41c-2-.02-3.27-.01-5.28 0a2.68 2.68 0 00-2.54 1.8l-10.4 32.05zM145.76 396.48h7.92l-4.47 13.61-3.64-.02 3.37-10.28h-4.29l1.1-3.3z"/><path d="M163.4 379.15h3.6l-10.82 33.45a5.5 5.5 0 01-5.23 3.7c-2.02.02-3.12.02-5.14 0-4.37-.01-6.06-1.73-7.07-4.56a7.93 7.93 0 01-.13-4.56c1.04-3.2 1.29-3.93 2.34-7.12a5.4 5.4 0 014.8-3.61s-3.02 9.15-3.97 12.14a3.39 3.39 0 003.4 4.41c2.01.03 3.27.01 5.28 0a2.68 2.68 0 002.54-1.8l10.4-32.05zM33.37 400.34h3.6l-10.8 33.45a5.5 5.5 0 01-5.22 3.7c-2.01.02-3.1.01-5.13 0-4.37-.01-6.05-1.73-7.07-4.56a7.94 7.94 0 01-.14-4.56c1.04-3.2 1.3-3.93 2.34-7.12a5.4 5.4 0 014.8-3.61s-3.02 9.15-3.96 12.14a3.39 3.39 0 003.4 4.41c2.01.03 3.27.01 5.27 0a2.68 2.68 0 002.55-1.8l10.36-32.05zM48.06 431.4h-7.93l4.48-13.6 3.63.02-3.37 10.27h4.29l-1.1 3.32z"/><path d="M30.41 448.74h-3.6l10.82-33.46a5.5 5.5 0 015.23-3.7H48c4.38.02 6.06 1.74 7.08 4.57.49 1.36.53 3.28.13 4.55l-2.35 7.13a5.4 5.4 0 01-4.8 3.6s3.03-9.14 3.97-12.13a3.39 3.39 0 00-3.4-4.42c-2.01-.02-3.27 0-5.28 0a2.68 2.68 0 00-2.54 1.81l-10.4 32.05zM44.45 439.16h7.92l-4.48 13.6-3.63-.02 3.37-10.27h-4.29l1.1-3.31z"/><path d="M62.09 421.82h3.6l-10.82 33.46a5.5 5.5 0 01-5.23 3.7H44.5c-4.37-.02-6.06-1.74-7.08-4.57a7.94 7.94 0 01-.12-4.55c1.04-3.2 1.28-3.94 2.34-7.13a5.4 5.4 0 014.8-3.6s-3.03 9.15-3.97 12.14a3.39 3.39 0 003.4 4.4c2.01.03 3.27.02 5.28 0a2.68 2.68 0 002.54-1.8l10.4-32.05zM76.83 452.3H68.9l4.48-13.61 3.63.02L73.64 449h4.29l-1.1 3.3z"/><path d="M59.18 469.63h-3.6l10.82-33.45a5.5 5.5 0 015.23-3.7c2.02-.02 3.12-.02 5.14 0 4.38.01 6.06 1.73 7.08 4.56.49 1.36.53 3.28.13 4.56l-2.35 7.12a5.4 5.4 0 01-4.8 3.61s3.03-9.15 3.97-12.14a3.39 3.39 0 00-3.4-4.41c-2.01-.03-3.27-.01-5.28 0a2.68 2.68 0 00-2.54 1.8l-10.4 32.05zM73.22 460.05h7.92l-4.48 13.6-3.63-.01 3.37-10.28h-4.29l1.1-3.31z"/><path d="M90.86 442.72h3.6l-10.82 33.45a5.5 5.5 0 01-5.23 3.7h-5.14c-4.37-.01-6.06-1.73-7.08-4.57a7.94 7.94 0 01-.12-4.55c1.04-3.2 1.28-3.93 2.34-7.12a5.4 5.4 0 014.8-3.61s-3.03 9.15-3.97 12.14a3.39 3.39 0 003.4 4.41c2.01.02 3.27.01 5.28 0a2.68 2.68 0 002.54-1.8l10.4-32.05zM330.23 143.37h-3.6l10.8-33.45a5.5 5.5 0 015.22-3.7c2.02-.02 3.12-.02 5.14 0 4.37.01 6.05 1.73 7.07 4.56.5 1.36.54 3.28.13 4.55l-2.33 7.13a5.4 5.4 0 01-4.8 3.6s3.02-9.14 3.96-12.13a3.39 3.39 0 00-3.4-4.42c-2.01-.02-3.27 0-5.28 0a2.68 2.68 0 00-2.54 1.81l-10.37 32.05zM361.86 116.45h3.6l-10.8 33.46a5.5 5.5 0 01-5.23 3.7h-5.13c-4.37-.02-6.05-1.74-7.07-4.57a7.94 7.94 0 01-.13-4.55c1.03-3.2 1.28-3.94 2.33-7.13a5.4 5.4 0 014.8-3.6s-3.02 9.15-3.96 12.14a3.39 3.39 0 003.4 4.4c2.01.03 3.27.02 5.27 0a2.68 2.68 0 002.55-1.8l10.37-32.05zM376.94 144.56h-7.92l4.47-13.61 3.64.02-3.38 10.28h4.3l-1.1 3.3z"/><path d="M359.3 161.9h-3.6l10.82-33.46a5.5 5.5 0 015.23-3.7c2.02-.02 3.12-.02 5.14 0 4.37.01 6.06 1.73 7.07 4.57.5 1.35.54 3.27.13 4.54l-2.34 7.13a5.4 5.4 0 01-4.8 3.61s3.02-9.15 3.97-12.14a3.39 3.39 0 00-3.4-4.41c-2.01-.03-3.27-.01-5.28 0a2.68 2.68 0 00-2.55 1.8l-10.4 32.05zM373.33 152.3h7.93l-4.48 13.62-3.63-.02 3.37-10.28h-4.3l1.11-3.31z"/><path d="M390.98 134.98h3.6l-10.83 33.45a5.5 5.5 0 01-5.23 3.7c-2.01.02-3.11.01-5.13 0-4.38-.01-6.06-1.73-7.08-4.57a7.94 7.94 0 01-.13-4.55c1.04-3.2 1.3-3.93 2.35-7.12a5.4 5.4 0 014.8-3.61s-3.03 9.15-3.97 12.14a3.39 3.39 0 003.4 4.41c2 .02 3.27.01 5.28 0a2.68 2.68 0 002.54-1.8l10.4-32.05zM405.64 166.12h-7.93l4.48-13.61 3.63.02-3.37 10.28h4.3l-1.11 3.3z"/><path d="M388 183.45h-3.6L395.21 150a5.5 5.5 0 015.23-3.7c2.02-.02 3.11-.02 5.13 0 4.38.01 6.06 1.73 7.08 4.56.49 1.36.53 3.28.13 4.55-1.04 3.2-1.3 3.94-2.35 7.13a5.4 5.4 0 01-4.8 3.61s3.03-9.15 3.98-12.14a3.39 3.39 0 00-3.4-4.41c-2.02-.03-3.28-.01-5.29 0a2.68 2.68 0 00-2.54 1.8L388 183.45zM402.03 173.87h7.92l-4.47 13.6-3.64-.01 3.38-10.28h-4.3l1.1-3.31z"/><path d="M419.67 156.54h3.6l-10.82 33.45a5.5 5.5 0 01-5.23 3.7c-2.02.02-3.12.01-5.14 0-4.37-.01-6.06-1.73-7.07-4.57a7.94 7.94 0 01-.13-4.55c1.04-3.2 1.29-3.93 2.34-7.12a5.4 5.4 0 014.8-3.61s-3.02 9.15-3.97 12.14a3.39 3.39 0 003.4 4.41c2.01.02 3.27.01 5.28 0a2.68 2.68 0 002.54-1.8l10.4-32.05zM434.4 186.94h-7.92l4.48-13.61 3.63.02-3.37 10.28h4.3l-1.11 3.3z"/><path d="M416.76 204.27h-3.6L424 170.82a5.5 5.5 0 015.23-3.7c2.02-.02 3.11-.02 5.13 0 4.38.01 6.06 1.73 7.08 4.56.49 1.36.53 3.28.13 4.55-1.04 3.2-1.3 3.94-2.35 7.13a5.4 5.4 0 01-4.8 3.61s3.03-9.15 3.97-12.14a3.39 3.39 0 00-3.4-4.41c-2-.03-3.27-.01-5.28 0a2.68 2.68 0 00-2.54 1.8l-10.4 32.05zM430.8 194.69h7.92l-4.47 13.6-3.64-.02 3.37-10.27h-4.29l1.1-3.31z"/><path d="M448.44 177.35h3.6l-10.82 33.46a5.5 5.5 0 01-5.23 3.7h-5.14c-4.37-.02-6.06-1.74-7.07-4.57a7.94 7.94 0 01-.13-4.55l2.34-7.13a5.4 5.4 0 014.8-3.6s-3.02 9.15-3.97 12.14a3.39 3.39 0 003.4 4.41c2.01.02 3.27.01 5.28 0a2.68 2.68 0 002.55-1.8l10.4-32.06zM395.73 129.81h-3.6l10.8-33.45a5.5 5.5 0 015.23-3.7c2.01-.02 3.11-.02 5.13 0 4.37.01 6.06 1.73 7.07 4.56.5 1.36.54 3.28.14 4.56-1.04 3.2-1.29 3.93-2.34 7.12a5.4 5.4 0 01-4.8 3.61s3.02-9.15 3.96-12.14a3.39 3.39 0 00-3.4-4.41c-2-.03-3.27-.01-5.27 0a2.68 2.68 0 00-2.54 1.8l-10.38 32.05zM409.75 120.23h7.93l-4.48 13.6-3.63-.02 3.37-10.27h-4.3l1.11-3.31z"/><path d="M427.4 102.9h3.6l-10.83 33.45a5.5 5.5 0 01-5.23 3.7c-2.02.02-3.11.01-5.13 0-4.38-.02-6.06-1.73-7.08-4.57a7.94 7.94 0 01-.13-4.55c1.04-3.2 1.29-3.93 2.34-7.12a5.4 5.4 0 014.81-3.61s-3.03 9.15-3.98 12.14a3.39 3.39 0 003.4 4.41c2.02.03 3.27.01 5.28 0a2.68 2.68 0 002.55-1.8l10.4-32.05zM361.63 249.69h-7.93l4.48-13.6 3.63.01-3.37 10.28h4.29l-1.1 3.31z"/><path d="M343.98 267.02h-3.6l10.83-33.45a5.5 5.5 0 015.23-3.7c2.01-.02 3.11-.01 5.13 0 4.38.01 6.06 1.73 7.08 4.57.49 1.36.53 3.27.13 4.55l-2.35 7.12a5.4 5.4 0 01-4.8 3.61s3.03-9.15 3.97-12.14a3.39 3.39 0 00-3.4-4.41c-2-.02-3.27-.01-5.28 0a2.68 2.68 0 00-2.54 1.8l-10.4 32.05zM358.02 257.44h7.92l-4.48 13.61-3.63-.02 3.37-10.28h-4.29l1.1-3.31z"/><path d="M375.66 240.1h3.6l-10.82 33.46a5.5 5.5 0 01-5.23 3.7c-2.02.02-3.12.01-5.14 0-4.37-.01-6.06-1.73-7.07-4.56a7.94 7.94 0 01-.13-4.56c1.04-3.2 1.28-3.93 2.34-7.12a5.4 5.4 0 014.8-3.61s-3.02 9.15-3.97 12.14a3.39 3.39 0 003.4 4.41c2.01.03 3.27.01 5.28 0a2.68 2.68 0 002.54-1.8l10.4-32.05zM470.83 154.86h-7.93l4.48-13.61 3.63.02-3.37 10.27h4.29l-1.1 3.32z"/><path d="M453.18 172.19h-3.6l10.82-33.45a5.5 5.5 0 015.24-3.7c2.01-.02 3.11-.02 5.13 0 4.38.01 6.06 1.73 7.08 4.56.49 1.36.53 3.28.13 4.55l-2.35 7.13a5.4 5.4 0 01-4.8 3.6s3.03-9.14 3.97-12.13a3.39 3.39 0 00-3.4-4.41c-2.01-.03-3.27-.02-5.28 0a2.68 2.68 0 00-2.54 1.8l-10.4 32.05zM508.48 109.98h7.92l-4.48 13.6-3.63-.02 3.37-10.27h-4.29l1.1-3.31z"/><path d="M526.12 92.65h3.6L518.9 126.1a5.5 5.5 0 01-5.23 3.7h-5.14c-4.38-.02-6.06-1.73-7.08-4.57a7.94 7.94 0 01-.13-4.55l2.35-7.12a5.4 5.4 0 014.8-3.61s-3.03 9.15-3.97 12.14a3.39 3.39 0 003.4 4.41c2.01.02 3.27.01 5.28 0a2.68 2.68 0 002.54-1.8l10.4-32.05zM354.83 166.46h3.6l-10.8 33.46a5.5 5.5 0 01-5.22 3.7h-5.13c-4.37-.02-6.05-1.74-7.07-4.57a7.94 7.94 0 01-.14-4.55l2.34-7.13a5.4 5.4 0 014.8-3.6s-3.02 9.15-3.96 12.14a3.39 3.39 0 003.4 4.4c2 .03 3.27.02 5.27 0a2.68 2.68 0 002.54-1.8l10.37-32.05zM369.51 197.53h-7.92l4.48-13.6 3.63.02-3.37 10.27h4.29l-1.1 3.31z"/><path d="M351.87 214.87h-3.6l10.82-33.46a5.5 5.5 0 015.23-3.7c2.02-.02 3.12-.01 5.14 0 4.38.02 6.06 1.73 7.08 4.57.49 1.36.53 3.28.13 4.55l-2.35 7.13a5.4 5.4 0 01-4.8 3.6s3.03-9.15 3.97-12.14a3.39 3.39 0 00-3.4-4.41c-2.01-.02-3.27-.01-5.28 0a2.68 2.68 0 00-2.54 1.8l-10.4 32.06zM365.9 205.28h7.93l-4.48 13.61-3.63-.02 3.37-10.28h-4.29l1.1-3.3z"/><path d="M383.55 187.95h3.6l-10.82 33.45a5.5 5.5 0 01-5.23 3.7c-2.02.02-3.12.02-5.14 0-4.38-.01-6.06-1.73-7.08-4.56a7.94 7.94 0 01-.13-4.55l2.35-7.13a5.4 5.4 0 014.8-3.61s-3.03 9.15-3.97 12.14a3.39 3.39 0 003.4 4.41c2.01.03 3.27.01 5.28 0a2.68 2.68 0 002.54-1.8l10.4-32.05zM398.28 218.43h-7.92l4.48-13.62 3.63.03-3.37 10.27h4.29l-1.1 3.31z"/><path d="M380.64 235.76h-3.6l10.82-33.46a5.5 5.5 0 015.23-3.7h5.14c4.38.02 6.06 1.74 7.08 4.57.49 1.36.53 3.28.13 4.55l-2.35 7.13a5.4 5.4 0 01-4.8 3.6s3.03-9.14 3.97-12.13a3.39 3.39 0 00-3.4-4.42c-2.01-.02-3.27 0-5.28 0a2.68 2.68 0 00-2.54 1.8l-10.4 32.06zM394.67 226.18h7.93l-4.48 13.6-3.63-.02 3.37-10.27h-4.29l1.1-3.31z"/><path d="M412.32 208.84h3.6L405.1 242.3a5.5 5.5 0 01-5.23 3.7h-5.14c-4.38-.02-6.06-1.74-7.08-4.57a7.93 7.93 0 01-.13-4.55l2.35-7.13a5.4 5.4 0 014.8-3.6s-3.03 9.14-3.97 12.13a3.39 3.39 0 003.4 4.42c2.01.02 3.27 0 5.28 0a2.68 2.68 0 002.54-1.8l10.4-32.06z"/></g><defs><clipPath id="clip0"><path fill="#fff" d="M0 0h689v644H0z"/></clipPath></defs></svg>