<svg width="92" height="92" fill="none" xmlns="http://www.w3.org/2000/svg"><rect width="92" height="92" rx="24" fill="#fff"/><path d="M55.23 51.7c2.35 0 4.68.58 6.73 1.7.37.2.71.44 1.06.67a44.87 44.87 0 005.13-20.33v-1.17a1.24 1.24 0 00-.98-1.16 36.3 36.3 0 01-19.46-11.63l-.79-.9a1.2 1.2 0 00-.92-.41c-.38-.05-.68.13-.91.39l-1.2 1.33a36.43 36.43 0 01-18.3 11.04l-.8.2c-.54.12-.92.6-.93 1.15-.44 17.3 9.77 29.75 14.18 34.3a41.7 41.7 0 003.79 3.45 14.17 14.17 0 0113.4-18.64z" fill="url(#paint0_linear)"/><path d="M60.78 55.56a11.7 11.7 0 10-5.55 21.98c6.44 0 11.7-5.24 11.7-11.69 0-4.3-2.36-8.25-6.15-10.29zm.44 8.73l-9.15 7.12-3.12-4.88a1.23 1.23 0 112.08-1.33l1.66 2.6 7.02-5.45a1.23 1.23 0 111.51 1.94z" fill="url(#paint1_linear)"/><defs><linearGradient id="paint0_linear" x1="46" y1="18.46" x2="46" y2="70.33" gradientUnits="userSpaceOnUse"><stop stop-color="#EF8080"/><stop offset="1" stop-color="#F0145A"/></linearGradient><linearGradient id="paint1_linear" x1="55.23" y1="54.16" x2="55.23" y2="77.54" gradientUnits="userSpaceOnUse"><stop stop-color="#EF8080"/><stop offset="1" stop-color="#F0145A"/></linearGradient></defs></svg>