<svg width="92" height="92" fill="none" xmlns="http://www.w3.org/2000/svg"><rect width="92" height="92" rx="24" fill="#fff"/><path d="M56 70H37v6h19v-6z" fill="#000"/><path d="M56 70H37v6h19v-6z" fill="url(#paint0_linear)"/><path d="M29.17 16.45L15.74 29.9l3.53 3.53L32.71 20l-3.54-3.54z" fill="#000"/><path d="M29.17 16.45L15.74 29.9l3.53 3.53L32.71 20l-3.54-3.54z" fill="url(#paint1_linear)"/><path d="M63.11 16.32l-3.53 3.54L73 33.29l3.54-3.53L63.1 16.32z" fill="#000"/><path d="M63.11 16.32l-3.53 3.54L73 33.29l3.54-3.53L63.1 16.32z" fill="url(#paint2_linear)"/><path d="M58.56 23.7l-2.7-.1a5.06 5.06 0 00-4.28 1.42l-5.5 5.5-5.76-5.74a3.84 3.84 0 00-3.85-.91 3.62 3.62 0 01-3.62-.9L32 22.1 21.4 32.7l1.72 1.73-.11 2.7a5.06 5.06 0 001.43 4.28l9.61 9.61a4.99 4.99 0 011.7-3.26l-3-3 .7-.7 3.13 3.13c.45-.25.93-.44 1.43-.54v-3.7l-1.73-1.72.71-.7 1.02 1V36.2a3.61 3.61 0 013.14-3.63 3.5 3.5 0 01.99.05l-1.23-1.23.7-.7 1.8 1.79a3.54 3.54 0 013.4-1.91A3.6 3.6 0 0150 33.9c.57-.27 1.2-.38 1.83-.33A3.62 3.62 0 0155 37.23v3.43a5 5 0 013.81 3.62l2.8-2.79.7.71L59 45.52v3.36c.9-.1 1.74-.5 2.38-1.13l6.84-6.84a3.84 3.84 0 00.91-3.86 3.62 3.62 0 01.9-3.61l.86-.85-10.6-10.61-1.73 1.73z" fill="#000"/><path d="M58.56 23.7l-2.7-.1a5.06 5.06 0 00-4.28 1.42l-5.5 5.5-5.76-5.74a3.84 3.84 0 00-3.85-.91 3.62 3.62 0 01-3.62-.9L32 22.1 21.4 32.7l1.72 1.73-.11 2.7a5.06 5.06 0 001.43 4.28l9.61 9.61a4.99 4.99 0 011.7-3.26l-3-3 .7-.7 3.13 3.13c.45-.25.93-.44 1.43-.54v-3.7l-1.73-1.72.71-.7 1.02 1V36.2a3.61 3.61 0 013.14-3.63 3.5 3.5 0 01.99.05l-1.23-1.23.7-.7 1.8 1.79a3.54 3.54 0 013.4-1.91A3.6 3.6 0 0150 33.9c.57-.27 1.2-.38 1.83-.33A3.62 3.62 0 0155 37.23v3.43a5 5 0 013.81 3.62l2.8-2.79.7.71L59 45.52v3.36c.9-.1 1.74-.5 2.38-1.13l6.84-6.84a3.84 3.84 0 00.91-3.86 3.62 3.62 0 01.9-3.61l.86-.85-10.6-10.61-1.73 1.73z" fill="url(#paint3_linear)"/><path d="M43.88 35.69a2.5 2.5 0 00-2.73-2.19 2.6 2.6 0 00-2.24 2.63v11.36a4 4 0 00-4 4v9.67A3.84 3.84 0 0037 64.53a3.62 3.62 0 011.91 3.2v1.2h15V66.5l1.99-1.82a5.06 5.06 0 002.01-4.05V45.5a4 4 0 00-4-4v-4.32a2.62 2.62 0 00-2.27-2.67 2.5 2.5 0 00-2.69 2.1h.46v15.44h-1V36.6h.5v-2.43a2.62 2.62 0 00-2.27-2.67 2.5 2.5 0 00-2.73 2.49v1.7h.5v15.44h-1V35.7h.47zm-4.57 20.35h-1v-8h1v8zm14.1-14.24h1v10.44h-1V41.8z" fill="#000"/><path d="M43.88 35.69a2.5 2.5 0 00-2.73-2.19 2.6 2.6 0 00-2.24 2.63v11.36a4 4 0 00-4 4v9.67A3.84 3.84 0 0037 64.53a3.62 3.62 0 011.91 3.2v1.2h15V66.5l1.99-1.82a5.06 5.06 0 002.01-4.05V45.5a4 4 0 00-4-4v-4.32a2.62 2.62 0 00-2.27-2.67 2.5 2.5 0 00-2.69 2.1h.46v15.44h-1V36.6h.5v-2.43a2.62 2.62 0 00-2.27-2.67 2.5 2.5 0 00-2.73 2.49v1.7h.5v15.44h-1V35.7h.47zm-4.57 20.35h-1v-8h1v8zm14.1-14.24h1v10.44h-1V41.8z" fill="url(#paint4_linear)"/><defs><linearGradient id="paint0_linear" x1="46.51" y1="70" x2="46.51" y2="76" gradientUnits="userSpaceOnUse"><stop stop-color="#EF8080"/><stop offset="1" stop-color="#F0145A"/></linearGradient><linearGradient id="paint1_linear" x1="22.46" y1="23.17" x2="25.99" y2="26.71" gradientUnits="userSpaceOnUse"><stop stop-color="#EF8080"/><stop offset="1" stop-color="#F0145A"/></linearGradient><linearGradient id="paint2_linear" x1="61.34" y1="18.09" x2="74.78" y2="31.52" gradientUnits="userSpaceOnUse"><stop stop-color="#EF8080"/><stop offset="1" stop-color="#F0145A"/></linearGradient><linearGradient id="paint3_linear" x1="46.14" y1="21.98" x2="46.14" y2="51.03" gradientUnits="userSpaceOnUse"><stop stop-color="#EF8080"/><stop offset="1" stop-color="#F0145A"/></linearGradient><linearGradient id="paint4_linear" x1="46.41" y1="31.49" x2="46.41" y2="68.93" gradientUnits="userSpaceOnUse"><stop stop-color="#EF8080"/><stop offset="1" stop-color="#F0145A"/></linearGradient></defs></svg>