<svg width="92" height="92" fill="none" xmlns="http://www.w3.org/2000/svg"><rect width="92" height="92" rx="24" fill="#fff"/><path d="M37.7 42.1a2 2 0 002-2v-7.8a6.3 6.3 0 0112.7 0v7.8a2 2 0 004 0v-7.8a10.3 10.3 0 00-20.7 0v7.8c0 1.1 1 2 2 2z" fill="url(#paint0_linear)"/><path d="M69 37.6H58.4v2.5a4 4 0 01-8 0v-2.5h-8.7v2.5a4 4 0 01-8 0v-2.5H23c-.6 0-.9.5-.8 1l7 28.5A4.1 4.1 0 0033 70h26c1.7 0 3.3-1.3 3.8-2.9l7-28.5c0-.5-.2-1-.8-1z" fill="url(#paint1_linear)"/><path d="M42.6 48.4a1.4 1.4 0 112.8 0v7V54a1.4 1.4 0 112.8 0v1.7c0-.8.6-2.4 1.4-2.4.8 0 1.4.6 1.4 1.4l.1 1.1c.3-.5.7-1.8 1.3-1.8.8 0 1.4.6 1.4 1.4v7c0 1.5-1.3 2.8-2.8 2.8h-4.7c-1.5 0-2.9-.6-4-1.6l-2.1-2.3L37 60c0-1.3 1-1.7 2.1-1.7.9 0 1.7.1 3.5 1V48.5z" fill="#fff"/><defs><linearGradient id="paint0_linear" x1="46.1" y1="22" x2="46.1" y2="42.1" gradientUnits="userSpaceOnUse"><stop stop-color="#EF8080"/><stop offset="1" stop-color="#F0145A"/></linearGradient><linearGradient id="paint1_linear" x1="46" y1="37.6" x2="46" y2="70" gradientUnits="userSpaceOnUse"><stop stop-color="#EF8080"/><stop offset="1" stop-color="#F0145A"/></linearGradient></defs></svg>