<svg width="92" height="92" fill="none" xmlns="http://www.w3.org/2000/svg"><rect width="92" height="92" rx="24" fill="#fff"/><path d="M54 34h3l3-2v-3l-7-6h-3l-2 2v3l6 6z" fill="url(#paint0_linear)"/><path d="M39 50h2l3-2v-3l-7-7h-2l-3 3v3l7 6z" fill="url(#paint1_linear)"/><path d="M69 51l-3-3h-3l-1 1-11-11 2-2-6-7-3 3-3 3-2 2 6 7 3-3 11 12-1 1v2l3 3h2l6-5v-3z" fill="url(#paint2_linear)"/><path d="M49 59l-2-2H30l-2 2v4h-5v7h30v-7h-4v-4z" fill="url(#paint3_linear)"/><defs><linearGradient id="paint0_linear" x1="53.6" y1="22.1" x2="53.6" y2="35" gradientUnits="userSpaceOnUse"><stop stop-color="#EF8080"/><stop offset="1" stop-color="#F0145A"/></linearGradient><linearGradient id="paint1_linear" x1="38" y1="37.9" x2="38" y2="50.9" gradientUnits="userSpaceOnUse"><stop stop-color="#EF8080"/><stop offset="1" stop-color="#F0145A"/></linearGradient><linearGradient id="paint2_linear" x1="53.9" y1="29.1" x2="53.9" y2="59.5" gradientUnits="userSpaceOnUse"><stop stop-color="#EF8080"/><stop offset="1" stop-color="#F0145A"/></linearGradient><linearGradient id="paint3_linear" x1="38.2" y1="56.8" x2="38.2" y2="69.9" gradientUnits="userSpaceOnUse"><stop stop-color="#EF8080"/><stop offset="1" stop-color="#F0145A"/></linearGradient></defs></svg>