<svg width="92" height="92" fill="none" xmlns="http://www.w3.org/2000/svg"><rect width="92" height="92" rx="24" fill="#fff"/><path fill-rule="evenodd" clip-rule="evenodd" d="M67 49v17c0 3-2 6-5 6H30c-3 0-5-3-5-6V49h16v8l5 3 5-3v-8h16z" fill="url(#paint0_linear)"/><path fill-rule="evenodd" clip-rule="evenodd" d="M43 49v7l3 2 3-2v-7h-6z" fill="url(#paint1_linear)"/><path fill-rule="evenodd" clip-rule="evenodd" d="M26 29h40c2 0 3 2 3 4v10c0 2-1 4-3 4H26c-2 0-3-2-3-4V33c0-2 1-4 3-4z" fill="url(#paint2_linear)"/><path fill-rule="evenodd" clip-rule="evenodd" d="M38 20h16c2 0 3 1 3 3v4h-3v-2l-2-2H40l-2 2v2h-3v-4c0-2 1-3 3-3z" fill="url(#paint3_linear)"/><defs><linearGradient id="paint0_linear" x1="46" y1="49.1" x2="46" y2="72" gradientUnits="userSpaceOnUse"><stop stop-color="#EF8080"/><stop offset="1" stop-color="#F0145A"/></linearGradient><linearGradient id="paint1_linear" x1="46" y1="49.1" x2="46" y2="57.7" gradientUnits="userSpaceOnUse"><stop stop-color="#EF8080"/><stop offset="1" stop-color="#F0145A"/></linearGradient><linearGradient id="paint2_linear" x1="46" y1="29.1" x2="46" y2="47" gradientUnits="userSpaceOnUse"><stop stop-color="#EF8080"/><stop offset="1" stop-color="#F0145A"/></linearGradient><linearGradient id="paint3_linear" x1="46" y1="20" x2="46" y2="27.1" gradientUnits="userSpaceOnUse"><stop stop-color="#EF8080"/><stop offset="1" stop-color="#F0145A"/></linearGradient></defs></svg>