<svg width="92" height="92" fill="none" xmlns="http://www.w3.org/2000/svg"><rect width="92" height="92" rx="24" fill="#fff"/><path d="M74.53 51.73a5.6 5.6 0 00-6.34 1.43l-1.22-.5-3.48-1.45a18.19 18.19 0 000-10.43l3.48-1.44 1.22-.5a5.61 5.61 0 006.34 1.43 5.63 5.63 0 10-7.77-4.9l-1.23.51-3.48 1.44a18.38 18.38 0 00-7.37-7.37l1.44-3.48.5-1.23.3.01a5.63 5.63 0 10-3.76-1.44l-.5 1.22-1.45 3.48a18.2 18.2 0 00-10.42 0l-1.45-3.48-.5-1.22a5.63 5.63 0 10-3.47 1.43l.51 1.23 1.44 3.48a18.38 18.38 0 00-7.37 7.37l-3.48-1.44-1.23-.5a5.63 5.63 0 10-1.43 3.46l1.22.5 3.48 1.45a18.2 18.2 0 000 10.42l-3.48 1.45-1.22.5a5.61 5.61 0 00-6.34-1.43 5.63 5.63 0 107.77 4.9l1.23-.51 3.48-1.44a18.38 18.38 0 007.37 7.37l-1.44 3.48-.5 1.23-.3-.01a5.63 5.63 0 103.76 1.44l.5-1.22 1.44-3.48a18.2 18.2 0 0010.43 0l1.45 3.48.5 1.22a5.63 5.63 0 103.47-1.43l-.51-1.23-1.44-3.48a18.38 18.38 0 007.37-7.37l3.48 1.44 1.23.5a5.63 5.63 0 107.77-4.9zM46 60.5c-8 0-14.5-6.5-14.5-14.5S38 31.5 46 31.5 60.5 38 60.5 46 54 60.5 46 60.5z" fill="#000"/><path d="M74.53 51.73a5.6 5.6 0 00-6.34 1.43l-1.22-.5-3.48-1.45a18.19 18.19 0 000-10.43l3.48-1.44 1.22-.5a5.61 5.61 0 006.34 1.43 5.63 5.63 0 10-7.77-4.9l-1.23.51-3.48 1.44a18.38 18.38 0 00-7.37-7.37l1.44-3.48.5-1.23.3.01a5.63 5.63 0 10-3.76-1.44l-.5 1.22-1.45 3.48a18.2 18.2 0 00-10.42 0l-1.45-3.48-.5-1.22a5.63 5.63 0 10-3.47 1.43l.51 1.23 1.44 3.48a18.38 18.38 0 00-7.37 7.37l-3.48-1.44-1.23-.5a5.63 5.63 0 10-1.43 3.46l1.22.5 3.48 1.45a18.2 18.2 0 000 10.42l-3.48 1.45-1.22.5a5.61 5.61 0 00-6.34-1.43 5.63 5.63 0 107.77 4.9l1.23-.51 3.48-1.44a18.38 18.38 0 007.37 7.37l-1.44 3.48-.5 1.23-.3-.01a5.63 5.63 0 103.76 1.44l.5-1.22 1.44-3.48a18.2 18.2 0 0010.43 0l1.45 3.48.5 1.22a5.63 5.63 0 103.47-1.43l-.51-1.23-1.44-3.48a18.38 18.38 0 007.37-7.37l3.48 1.44 1.23.5a5.63 5.63 0 107.77-4.9zM46 60.5c-8 0-14.5-6.5-14.5-14.5S38 31.5 46 31.5 60.5 38 60.5 46 54 60.5 46 60.5z" fill="url(#paint0_linear)"/><path d="M46 35.25a10.76 10.76 0 000 21.5 10.76 10.76 0 000-21.5zm1.88 14.87h-3.75v-8.25h3.75v8.25z" fill="#000"/><path d="M46 35.25a10.76 10.76 0 000 21.5 10.76 10.76 0 000-21.5zm1.88 14.87h-3.75v-8.25h3.75v8.25z" fill="url(#paint1_linear)"/><defs><linearGradient id="paint0_linear" x1="46" y1="14" x2="46" y2="78" gradientUnits="userSpaceOnUse"><stop stop-color="#EF8080"/><stop offset="1" stop-color="#F0145A"/></linearGradient><linearGradient id="paint1_linear" x1="46" y1="35.25" x2="46" y2="56.75" gradientUnits="userSpaceOnUse"><stop stop-color="#EF8080"/><stop offset="1" stop-color="#F0145A"/></linearGradient></defs></svg>