<svg width="208" height="31" fill="none" xmlns="http://www.w3.org/2000/svg"><g clip-path="url(#clip0)"><path d="M5.17563 28.5456c0-.5557-.19068-1.0243-.5666-1.4111-.37591-.3868-.83354-.5775-1.36745-.5775-.48488 0-.90438.1526-1.2585.4631-.34867.3051-.56659.6756-.64831 1.1169H.817205v-1.4983H0v3.8137h.817205v-1.5527h.517565c.08172.4631.29964.8553.64831 1.1659.34868.3105.76818.4685 1.2585.4685.53391 0 .99154-.1907 1.36745-.5775.37592-.3814.5666-.8553.5666-1.411zm-.81721 0c0 .3595-.10896.6592-.32688.8934-.22337.2397-.48487.3596-.78996.3596s-.5666-.1199-.78452-.3596c-.22337-.2342-.33233-.5339-.33233-.8934 0-.3596.10896-.6593.33233-.899.21792-.2342.47943-.3541.78452-.3541s.56659.1199.78996.3541c.21792.2397.32688.5394.32688.899zM6.4801 26.639v3.8136h.81721v-1.2531h.78996c.39226 0 .71914-.1253.9752-.3704.25606-.2452.38681-.5503.38681-.9099 0-.365-.13075-.6646-.38681-.9152-.26151-.2452-.58294-.365-.9752-.365H6.4801zm1.57993.7354c.16344 0 .29964.0545.4086.158.10896.1036.16344.2343.16344.3868 0 .1526-.05448.2833-.16344.3869-.10896.1035-.24516.158-.4086.158h-.76272v-1.0897h.76272zM14.1309 30.4526V26.639h-.7083l-1.8796 2.4243V26.639h-.8172v3.8136h.7083l1.8795-2.4244v2.4244h.8173zM15.1622 29.7171v1.5254h.8172v-.7899h2.2882v.7899h.8172v-1.5254h-.4631V26.639h-2.6423v1.1713c0 .256-.0218.4958-.0653.7191-.0436.2288-.0927.4086-.1417.5448-.0545.1308-.1144.2506-.1852.365-.0708.109-.1144.1798-.1417.2125-.0327.0273-.049.0545-.0653.0654h-.218zm1.6344-1.9068v-.4359h1.0079v2.3427h-1.6071l.0653-.0654c.0382-.0436.0872-.1144.1471-.2179.06-.1035.1144-.2234.1744-.3596.0599-.1362.1089-.3214.1471-.5448.0435-.2233.0653-.4631.0653-.7191zM23.6558 30.4526V26.639h-.7083l-1.8796 2.4243V26.639h-.8172v3.8136h.7083l1.8795-2.4244v2.4244h.8173zM25.9409 26.639h-.8172v1.1713c0 .4576.1198.8117.3595 1.0624.2452.256.5775.3813 1.0025.3813.365 0 .6646-.0708.8989-.2179v1.4165h.8172V26.639h-.8172v1.6071l-.0926.0709c-.06.0435-.1526.0871-.2779.1362-.1253.0435-.256.0653-.3922.0653-.218 0-.3868-.0599-.5067-.1798-.1144-.1253-.1743-.2996-.1743-.5284V26.639zM32.9928 26.639h-.8172v1.5254h-1.6344V26.639h-.8172v3.8136h.8172v-1.5527h1.6344v1.5527h.8172V26.639zM36.4775 28.8454h-.9262l.4631-1.253.4631 1.253zm.2724.7083l.3268.8989h.8717l-1.4982-3.8136h-.8717l-1.4982 3.8136h.8717l.3269-.8989h1.471zM41.5112 26.639h-.8172v3.8136h.8172V29.363l.4903-.5448 1.1168 1.6344h.9534l-1.5254-2.2337 1.4165-1.5799h-.9534l-1.4982 1.6616V26.639zM45.7307 28.5456c0-.3487.1198-.6484.3595-.8881.2343-.2451.5231-.365.8663-.365.3432 0 .632.1199.8662.365.2397.2397.3596.5394.3596.8881 0 .3541-.1199.6483-.3596.888-.2342.2452-.523.365-.8662.365-.3432 0-.632-.1198-.8663-.365-.2397-.2397-.3595-.5339-.3595-.888zm-.8445 0c0 .5448.2016 1.0187.5993 1.4056.3977.3868.888.5829 1.471.5829.5829 0 1.0732-.1961 1.471-.5829.3977-.3869.5992-.8608.5992-1.4056 0-.5503-.2015-1.0188-.5992-1.4056-.3978-.3868-.8881-.583-1.471-.583-.583 0-1.0733.1962-1.471.583-.3977.3868-.5993.8553-.5993 1.4056zM52.3742 28.3006l-1.3075-1.6616h-.7355v3.8136h.8172v-2.5334l1.2258 1.5527L53.6 27.9084v2.5442h.8172V26.639h-.7246l-1.3184 1.6616zM59.1797 26.639h-3.2416v3.8136h.8172v-3.0782h1.6072v3.0782h.8172V26.639zM62.665 28.8454h-.9262l.4631-1.253.4631 1.253zm.2724.7083l.3268.8989h.8717l-1.4982-3.8136h-.8717l-1.4982 3.8136h.8717l.3269-.8989h1.471zM68.4916 26.639h-.8172v1.5254H66.04V26.639h-.8172v3.8136h.8172v-1.5527h1.6344v1.5527h.8172V26.639zM70.831 26.639h-.8172v3.8136h.8172V26.639zM75.1863 26.639h-1.6889c-.3813 0-.6919.1198-.937.3595-.2452.2397-.3705.5394-.3705.8935 0 .1526.0273.2942.0708.4304.0491.1362.1035.2397.1689.316.06.0763.1253.1471.2071.2125.0762.0653.1307.1089.1634.1253.0272.0109.0545.0272.0708.0327l-.8172 1.4437h.8717l.7355-1.3348h.7082v1.3348h.8172V26.639zm-2.1792 1.253c0-.1525.049-.2724.1471-.3705.0981-.098.2234-.1471.3705-.1471h.8444v1.0079h-.8444c-.1471 0-.2724-.049-.3705-.1416-.0981-.0926-.1471-.2125-.1471-.3487z" fill="#fff"/><path d="M2.49057.0000763H0V17.9875h2.49057v-6.6731c0-1.129.2808-2.01955.84239-2.64673.5616-.62718 1.33075-.95331 2.28302-.95331.81798 0 1.50167.30105 2.05106.87805.54939.58955.83018 1.32962.83018 2.22019v7.1875H11v-7.1875c0-1.65573-.4517-2.96026-1.35516-3.93866-.90344-.97839-2.08768-1.46759-3.5283-1.46759-.4151 0-.83019.05017-1.23308.16306-.41509.1129-.74473.23833-1.01332.37631s-.52497.2885-.75693.46411c-.23197.17561-.39068.30105-.46393.37631-.07325.07526-.1343.12543-.15871.16306V.0000763z" fill="#F0145A"/><path d="M16.5675 0H14v17.9725h2.5675V0zM31.7111 12.7089l.1284-1.2837c0-1.72024-.5648-3.15804-1.7202-4.31342-1.1554-1.15537-2.5932-1.72022-4.3134-1.72022-1.7202 0-3.2094.6162-4.4418 1.8486-1.2324 1.2324-1.8486 2.69588-1.8486 4.44174 0 1.7973.6419 3.3378 1.9 4.6215 1.258 1.2838 2.7729 1.9257 4.5188 1.9257.6675 0 1.2837-.1027 1.8999-.2825.6162-.2054 1.1297-.4108 1.4892-.6162.3851-.231.7702-.4878 1.104-.7702.3338-.2824.5648-.4878.6675-.6162.1027-.1284.1798-.2054.2311-.2824l-1.6689-1.6689-.3851.4878c-.2567.3081-.6932.6162-1.3094.95-.6419.3338-1.3094.4878-2.0283.4878-1.0014 0-1.8486-.3081-2.5675-.95-.7189-.6418-1.1554-1.3864-1.2838-2.2594h9.6281zm-5.9052-5.13497c.95 0 1.7202.28243 2.3621.8216.6162.56485 1.0013 1.25808 1.1554 2.13107h-7.1377c.2311-.87299.6419-1.56622 1.2838-2.13107.6162-.53917 1.4121-.8216 2.3364-.8216zM43.6855 17.2277c0 1.1297-.3337 2.054-1.027 2.7729-.6675.6933-1.5148 1.0527-2.5675 1.0527-.4621 0-.9243-.077-1.3607-.2054-.4365-.1284-.7703-.2824-1.0527-.4621-.2824-.1798-.5392-.3595-.7959-.5906-.2311-.231-.3852-.3851-.4622-.4621-.077-.077-.1284-.1541-.1797-.2054l-1.6689 1.6689.2054.2567c.1284.1797.3595.4108.6676.6676.3081.231.6675.4878 1.0783.7445.4108.2311.9243.4365 1.5662.6162.6419.1798 1.3094.2825 2.0026.2825 1.7459 0 3.1837-.5906 4.3905-1.7716 1.181-1.2067 1.7715-2.6445 1.7715-4.3904V5.64831h-2.5675v1.28375l-.4364-.38513c-.2825-.25675-.7189-.5135-1.3351-.77025-.6162-.25675-1.2838-.38512-1.9513-.38512-1.5662 0-2.9013.59052-4.0567 1.79725-1.1554 1.20672-1.7202 2.64452-1.7202 4.36479 0 1.7202.5648 3.158 1.7202 4.3647s2.4905 1.7973 4.0567 1.7973c.4364 0 .8472-.0514 1.2837-.1541.4108-.1284.7446-.2567 1.027-.3851.2824-.1284.5392-.2824.7703-.4622.231-.1797.4108-.3081.4621-.3594l.1797-.1797v1.0526zm-6.9322-5.6741c0-1.0784.3338-1.97702 1.027-2.72159.6932-.74458 1.5148-1.1297 2.4391-1.1297.9243 0 1.7459.38512 2.4391 1.1297.6676.74457 1.027 1.64319 1.027 2.72159 0 1.0783-.3594 1.9769-1.027 2.7215-.6932.7446-1.5148 1.1297-2.4391 1.1297-.9243 0-1.7459-.3851-2.4391-1.1297-.6932-.7446-1.027-1.6432-1.027-2.7215zM59.6544 17.9723v-7.9592c0-1.30947-.4878-2.41349-1.4378-3.28644-.95-.89863-2.1824-1.3351-3.6972-1.3351-.5905 0-1.1811.07702-1.7459.23107-.5649.17973-1.027.35945-1.3608.56485-.3338.2054-.6675.43648-.9756.7189-.3081.25675-.4879.43648-.5906.53918-.077.1027-.154.17972-.2054.25675L51.31 9.37118l.3338-.43647c.2054-.28243.5648-.53918 1.104-.8216.5392-.28243 1.1297-.4108 1.7716-.4108.7446 0 1.3608.23107 1.8486.66755.4878.43647.7189 1.00133.7189 1.64324l-4.4931.7702c-1.1041.1797-2.0027.6162-2.6189 1.3094-.6419.6933-.9756 1.5405-.9756 2.5419 0 .9499.4108 1.7715 1.2324 2.4904.8472.7446 1.8742 1.1041 3.1323 1.1041.4365 0 .8473-.0514 1.2581-.1798.4365-.1027.7702-.231 1.0527-.3594.2824-.1284.5392-.2824.7702-.4622.2311-.1797.3852-.3081.4879-.3594.077-.077.1283-.1541.154-.1797v1.2837h2.5675zm-5.9053-2.054c-.6675 0-1.2067-.154-1.5918-.4621-.4108-.3081-.5905-.6676-.5905-1.0784 0-.4365.1283-.8216.4108-1.104.2824-.2824.6675-.4878 1.1297-.5649l3.9796-.6418v.2567c0 1.1554-.2824 2.0283-.8729 2.6702-.5906.6162-1.4122.9243-2.4649.9243zM65.3201-.00000381h-2.5675V17.9725h2.5675V-.00000381zM76.9945 7.06043l-.1541-.17972c-.1027-.1027-.2567-.23108-.4878-.4108-.2311-.17973-.4878-.33378-.7702-.5135-.2825-.15405-.6676-.28243-1.1297-.4108-.4622-.1027-.95-.15405-1.4378-.15405-1.2581 0-2.2851.35945-3.1067 1.07835-.8473.74457-1.2581 1.56617-1.2581 2.51615 0 .69323.154 1.25804.4621 1.77154.3081.4879.6933.8473 1.1811 1.0527.4622.2311.9757.4622 1.5148.6419.5392.1797 1.027.3338 1.5149.4621.4621.1541.8472.3338 1.1553.5649.3081.2311.4622.5392.4622.8986 0 .4622-.1797.8473-.5135 1.1297-.3338.2568-.8473.4108-1.5405.4108-.5649 0-1.1297-.154-1.6689-.4108-.5392-.2824-.8729-.5135-1.0527-.6932-.154-.1797-.2824-.3338-.3594-.4365l-1.6689 1.6689.1797.2311c.1284.154.3081.3337.5649.5391.2824.2311.5905.4365.9243.6419.3594.2054.8216.3851 1.3608.5392.5391.154 1.1297.2311 1.7202.2311 1.3608 0 2.4905-.3852 3.3377-1.1297.8473-.7446 1.2838-1.6689 1.2838-2.7216 0-.6932-.1541-1.2837-.4622-1.7459-.3081-.4878-.6932-.8473-1.181-1.0783-.4622-.2568-.9757-.4622-1.5148-.6419-.5392-.1797-1.027-.3595-1.5149-.4622-.4621-.1283-.8472-.3337-1.1553-.56481-.3081-.23108-.4622-.53918-.4622-.89863 0-.33378.1541-.64188.4878-.89863.3081-.25675.7446-.38512 1.3095-.38512.4108 0 .8216.1027 1.2067.28242.4108.17973.6932.33378.8216.46215.1284.12838.2311.23108.2824.28243l1.6689-1.66888z" fill="#fff"/></g><defs><clipPath id="clip0"><path fill="#fff" d="M0 0h208v31H0z"/></clipPath></defs></svg>