<svg width="156" height="63" fill="none" xmlns="http://www.w3.org/2000/svg"><path d="M10.3513 57.0912c0-1.1114-.3814-2.0484-1.13323-2.8221-.75183-.7736-1.6671-1.1549-2.73491-1.1549-.96975 0-1.80875.305-2.51699.9261-.69735.6102-1.13319 1.3511-1.29664 2.2337H1.63441v-2.9964H0v7.6272h1.63441v-3.1053h1.03512c.16345.9261.59929 1.7106 1.29664 2.3317.69734.6211 1.53634.9371 2.51699.9371 1.06781 0 1.98308-.3814 2.73491-1.155.75183-.7627 1.13323-1.7107 1.13323-2.8221zm-1.63445 0c0 .7192-.21792 1.3184-.65376 1.787-.44674.4794-.96975.7191-1.57993.7191-.61018 0-1.13319-.2397-1.56904-.7191-.44674-.4686-.66466-1.0678-.66466-1.787 0-.7191.21792-1.3184.66466-1.7978.43585-.4686.95886-.7083 1.56904-.7083s1.13319.2397 1.57993.7083c.43584.4794.65376 1.0787.65376 1.7978zM12.9603 53.2781v7.6273h1.6344v-2.5061h1.5799c.7845 0 1.4383-.2506 1.9504-.741.5121-.4903.7736-1.1005.7736-1.8196 0-.73-.2615-1.3293-.7736-1.8305-.523-.4904-1.1659-.7301-1.9504-.7301h-3.2143zm3.1598 1.471c.3269 0 .5993.1089.8172.316.218.207.3269.4685.3269.7736 0 .3051-.1089.5666-.3269.7736-.2179.207-.4903.316-.8172.316h-1.5254v-2.1792h1.5254zM28.2618 60.9054v-7.6273h-1.4165l-3.7591 4.8488v-4.8488h-1.6344v7.6273h1.4165l3.7591-4.8488v4.8488h1.6344zM30.3245 59.4344v3.0509h1.6345v-1.5799h4.5763v1.5799h1.6344v-3.0509h-.9262v-6.1563H31.959v2.3427c0 .5121-.0436.9915-.1308 1.4383-.0872.4576-.1852.8172-.2833 1.0896-.109.2615-.2288.5012-.3705.73-.1416.2179-.2288.3596-.2833.4249-.0653.0545-.098.109-.1307.1308h-.4359zm3.2689-3.8136v-.8717h2.0157v4.6853h-3.2143l.1308-.1308c.0762-.0871.1743-.2288.2941-.4358.1199-.207.2289-.4467.3487-.7191.1199-.2724.2179-.6429.2942-1.0896.0872-.4468.1308-.9262.1308-1.4383zM47.3114 60.9054v-7.6273h-1.4165l-3.7591 4.8488v-4.8488h-1.6344v7.6273h1.4164l3.7592-4.8488v4.8488h1.6344zM51.8817 53.2781h-1.6344v2.3427c0 .9152.2397 1.6235.7192 2.1247.4903.5121 1.1549.7627 2.0048.7627.7301 0 1.3294-.1416 1.7979-.4358v2.833h1.6344v-7.6273h-1.6344v3.2144l-.1853.1416c-.1198.0872-.305.1743-.5557.2724-.2506.0872-.5121.1308-.7845.1308-.4358 0-.7736-.1199-1.0133-.3596-.2288-.2506-.3487-.5993-.3487-1.0569v-2.3427zM65.9856 53.2781h-1.6344v3.0509h-3.2688v-3.0509H59.448v7.6273h1.6344V57.8h3.2688v3.1054h1.6344v-7.6273zM72.9549 57.691h-1.8523l.9262-2.5061.9261 2.5061zm.5448 1.4165l.6538 1.7979h1.7434l-2.9965-7.6273h-1.7433l-2.9965 7.6273h1.7434l.6538-1.7979h2.9419zM83.0222 53.2781h-1.6344v7.6273h1.6344v-2.1792l.9807-1.0897 2.2337 3.2689h1.9068l-3.0509-4.4674 2.833-3.1599h-1.9068l-2.9965 3.3233v-3.3233zM91.4614 57.0912c0-.6973.2398-1.2966.7192-1.776.4685-.4904 1.046-.7301 1.7325-.7301.6864 0 1.2639.2397 1.7324.7301.4795.4794.7192 1.0787.7192 1.776 0 .7083-.2397 1.2967-.7192 1.7761-.4685.4903-1.046.73-1.7324.73-.6865 0-1.264-.2397-1.7325-.73-.4794-.4794-.7192-1.0678-.7192-1.7761zm-1.6888 0c0 1.0896.4031 2.0376 1.1985 2.8112.7954.7736 1.7761 1.1659 2.942 1.1659 1.1658 0 2.1465-.3923 2.9419-1.1659.7954-.7736 1.1986-1.7216 1.1986-2.8112 0-1.1005-.4032-2.0375-1.1986-2.8112-.7954-.7736-1.7761-1.1658-2.9419-1.1658-1.1659 0-2.1466.3922-2.942 1.1658-.7954.7737-1.1985 1.7107-1.1985 2.8112zM104.748 56.6014l-2.615-3.3233h-1.471v7.6273h1.635v-5.0667l2.451 3.1054 2.452-3.1272v5.0885h1.634v-7.6273h-1.449l-2.637 3.3233zM118.359 53.2781h-6.483v7.6273h1.635v-6.1563h3.214v6.1563h1.634v-7.6273zM125.33 57.691h-1.853l.927-2.5061.926 2.5061zm.545 1.4165l.653 1.7979h1.744l-2.997-7.6273h-1.743l-2.996 7.6273h1.743l.654-1.7979h2.942zM136.983 53.2781h-1.634v3.0509h-3.269v-3.0509h-1.635v7.6273h1.635V57.8h3.269v3.1054h1.634v-7.6273zM141.662 53.2781h-1.635v7.6273h1.635v-7.6273zM150.373 53.2781h-3.378c-.763 0-1.384.2397-1.874.7192-.491.4794-.741 1.0787-.741 1.7869 0 .3051.054.5884.141.8608.098.2724.207.4794.338.632.12.1525.251.2942.414.4249.153.1308.262.2179.327.2506.055.0218.109.0545.142.0654l-1.635 2.8875h1.744l1.471-2.6696h1.416v2.6696h1.635v-7.6273zm-4.359 2.5061c0-.3051.098-.5448.294-.7409.196-.1961.447-.2942.741-.2942h1.689v2.0158h-1.689c-.294 0-.545-.0981-.741-.2833-.196-.1853-.294-.425-.294-.6974z" fill="#fff"/><path d="M4.98113.0000763H0V35.975h4.98113V22.6286c0-2.2578.5616-4.039 1.6848-5.2933 1.12319-1.2544 2.66148-1.9067 4.56607-1.9067 1.6359 0 3.0033.6021 4.1021 1.7561 1.0988 1.1791 1.6603 2.6593 1.6603 4.4405v14.3749H22V21.6252c0-3.3115-.9034-5.9206-2.7103-7.8774-1.8069-1.9568-4.1754-2.9352-7.0566-2.9352-.8302 0-1.6604.1004-2.46617.3262-.83019.2257-1.48946.4766-2.02664.7526-.53718.2759-1.04995.577-1.51387.9282-.46393.3512-.78136.6021-.92786.7526-.14651.1505-.26859.2509-.31743.3261V.0000763z" fill="#F0145A"/><path d="M33.135 0H28v35.945h5.135V0zM63.4222 25.4178l.2567-2.5675c0-3.4405-1.1297-6.3161-3.4404-8.6268-2.3108-2.3108-5.1864-3.4405-8.6268-3.4405-3.4405 0-6.4188 1.2324-8.8836 3.6972-2.4648 2.4648-3.6972 5.3918-3.6972 8.8836 0 3.5945 1.2838 6.6755 3.7999 9.243 2.5162 2.5675 5.5458 3.8513 9.0376 3.8513 1.3351 0 2.5675-.2054 3.7999-.5649 1.2324-.4108 2.2594-.8216 2.9783-1.2324.7703-.4621 1.5405-.9756 2.2081-1.5405.6675-.5648 1.1297-.9756 1.3351-1.2324.2054-.2567.3594-.4108.4621-.5648l-3.3377-3.3378-.7703.9757c-.5135.6162-1.3864 1.2324-2.6188 1.8999-1.2838.6676-2.6189.9757-4.0567.9757-2.0026 0-3.6972-.6162-5.135-1.9-1.4378-1.2837-2.3107-2.7729-2.5675-4.5188h19.2563zm-11.8105-10.27c1.8999 0 3.4404.5648 4.7242 1.6432 1.2324 1.1297 2.0026 2.5161 2.3107 4.262H44.3713c.4622-1.7459 1.2838-3.1323 2.5675-4.262 1.2324-1.0784 2.8243-1.6432 4.6729-1.6432zM87.3712 34.4554c0 2.2594-.6675 4.108-2.054 5.5458-1.3351 1.3865-3.0296 2.1054-5.135 2.1054-.9243 0-1.8486-.1541-2.7215-.4108-.873-.2568-1.5405-.5649-2.1054-.9243-.5648-.3595-1.0783-.7189-1.5918-1.1811-.4622-.4621-.7703-.7702-.9243-.9243-.1541-.154-.2568-.3081-.3595-.4108l-3.3377 3.3378.4108.5135c.2567.3594.7189.8216 1.3351 1.3351.6162.4621 1.3351.9756 2.1567 1.4891.8216.4622 1.8486.873 3.1323 1.2324 1.2838.3595 2.6189.5649 4.0053.5649 3.4918 0 6.3674-1.1811 8.7809-3.5432 2.3621-2.4134 3.5431-5.289 3.5431-8.7809V11.2965h-5.135v2.5675l-.8729-.7702c-.5649-.5135-1.4378-1.027-2.6702-1.5405-1.2324-.5135-2.5675-.7703-3.9026-.7703-3.1324 0-5.8026 1.1811-8.1133 3.5945-2.3108 2.4135-3.4405 5.2891-3.4405 8.7295 0 3.4405 1.1297 6.3161 3.4405 8.7295 2.3107 2.4135 4.9809 3.5945 8.1133 3.5945.8729 0 1.6945-.1026 2.5675-.3081.8216-.2567 1.4891-.5135 2.054-.7702.5648-.2568 1.0783-.5649 1.5405-.9243.4621-.3595.8216-.6162.9243-.7189l.3594-.3595v2.1054zM73.5067 23.107c0-2.1567.6676-3.9539 2.054-5.4431 1.3865-1.4891 3.0297-2.2594 4.8783-2.2594 1.8486 0 3.4918.7703 4.8782 2.2594 1.3351 1.4892 2.054 3.2864 2.054 5.4431 0 2.1567-.7189 3.954-2.054 5.4431-1.3864 1.4892-3.0296 2.2594-4.8782 2.2594-1.8486 0-3.4918-.7702-4.8783-2.2594-1.3864-1.4891-2.054-3.2864-2.054-5.4431zM119.309 35.9446V20.026c0-2.6188-.976-4.8269-2.876-6.5728-1.9-1.7972-4.365-2.6702-7.394-2.6702-1.181 0-2.362.1541-3.492.4622-1.13.3594-2.054.7189-2.722 1.1297-.667.4108-1.335.8729-1.951 1.4378-.616.5135-.9755.8729-1.1809 1.0783-.1541.2054-.3081.3595-.4108.5135l3.3377 3.3378.668-.873c.41-.5648 1.129-1.0783 2.208-1.6432 1.078-.5648 2.259-.8216 3.543-.8216 1.489 0 2.721.4622 3.697 1.3351.976.873 1.438 2.0027 1.438 3.2864l-8.986 1.5405c-2.209.3595-4.006 1.2324-5.2382 2.6189-1.2837 1.3865-1.9513 3.081-1.9513 5.0837 0 1.8999.8216 3.5431 2.4645 4.9809 1.695 1.4892 3.749 2.2081 6.265 2.2081.873 0 1.695-.1027 2.516-.3595.873-.2054 1.541-.4621 2.106-.7189.564-.2567 1.078-.5648 1.54-.9243.462-.3594.77-.6162.976-.7189.154-.154.256-.3081.308-.3594v2.5675h5.135zm-11.811-4.108c-1.335 0-2.413-.3081-3.183-.9243-.822-.6162-1.181-1.3351-1.181-2.1567 0-.873.256-1.6432.821-2.2081.565-.5648 1.335-.9756 2.26-1.1297l7.959-1.2838v.5135c0 2.3108-.565 4.0567-1.746 5.3405-1.181 1.2324-2.824 1.8486-4.93 1.8486zM130.64-.00000381h-5.135V35.945h5.135V-.00000381zM153.989 14.1208l-.308-.3595c-.206-.2054-.514-.4621-.976-.8216-.462-.3594-.976-.6675-1.54-1.027-.565-.3081-1.336-.5648-2.26-.8216-.924-.2054-1.9-.3081-2.875-.3081-2.517 0-4.571.7189-6.214 2.1567-1.694 1.4892-2.516 3.1324-2.516 5.0323 0 1.3865.308 2.5162.924 3.5432.617.9756 1.387 1.6945 2.362 2.1053.925.4622 1.952.9243 3.03 1.2838 1.078.3595 2.054.6676 3.03.9243.924.3081 1.694.6676 2.311 1.1297.616.4622.924 1.0784.924 1.7973 0 .9243-.36 1.6945-1.027 2.2594-.668.5135-1.695.8216-3.081.8216-1.13 0-2.26-.3081-3.338-.8216-1.078-.5649-1.746-1.027-2.105-1.3865-.308-.3594-.565-.6675-.719-.8729l-3.338 3.3377.36.4622c.256.3081.616.6675 1.129 1.0783.565.4622 1.181.873 1.849 1.2838.719.4108 1.643.7702 2.721 1.0783 1.079.3081 2.26.4622 3.441.4622 2.721 0 4.981-.7703 6.675-2.2594 1.695-1.4892 2.568-3.3378 2.568-5.4431 0-1.3865-.308-2.5675-.924-3.4918-.617-.9757-1.387-1.6946-2.363-2.1568-.924-.5135-1.951-.9243-3.029-1.2837-1.079-.3595-2.054-.7189-3.03-.9243-.924-.2568-1.694-.6676-2.311-1.1297-.616-.4622-.924-1.0784-.924-1.7973 0-.6675.308-1.2837.976-1.7972.616-.5135 1.489-.7703 2.619-.7703.821 0 1.643.2054 2.413.5649.822.3594 1.386.6675 1.643.9243.257.2567.462.4621.565.5648l3.338-3.3377z" fill="#fff"/></svg>